<?xml version="1.0" encoding="UTF-8"?><svg id="Layer_1" xmlns="http://www.w3.org/2000/svg" viewBox="0 0 1733.02 497.68"><defs><style>.cls-1{fill:#171cb7;}</style></defs><path class="cls-1" d="M405.44,103.55h-25.95v-63.54h-15.16v-22.31h56.26v22.31h-15.16v63.54Z"/><path class="cls-1" d="M464.73,70.69h-11.64v32.86h-26.19V17.7h26.19v29.34h11.64v-29.34h26.19v85.85h-26.19v-32.86Z"/><path class="cls-1" d="M503.53,17.7h26.68v85.85h-26.68V17.7Z"/><path class="cls-1" d="M562.57,105.73c-2.91,0-5.68-.26-8.31-.79-2.63-.53-5.05-1.23-7.27-2.12-2.22-.89-4.26-1.9-6.12-3.03-1.86-1.13-3.44-2.26-4.73-3.4l12.61-20.01c1.86,1.54,3.9,2.79,6.12,3.76,2.22.97,4.43,1.46,6.61,1.46,1.37,0,2.53-.34,3.46-1.03.93-.69,1.39-1.68,1.39-2.97,0-1.53-.67-2.83-2-3.88-1.33-1.05-3.42-2.26-6.24-3.64-2.43-1.13-4.73-2.4-6.91-3.82-2.18-1.41-4.12-3.13-5.82-5.15-1.7-2.02-3.05-4.38-4.06-7.09-1.01-2.71-1.52-5.88-1.52-9.52,0-5.25.93-9.72,2.79-13.4,1.86-3.68,4.22-6.67,7.09-8.97,2.87-2.3,6.06-3.98,9.58-5.03,3.52-1.05,6.97-1.58,10.37-1.58,5.17,0,9.8.81,13.88,2.43,4.08,1.62,7.5,3.72,10.25,6.31l-12.97,19.76c-1.38-1.37-2.99-2.53-4.85-3.46-1.86-.93-3.64-1.39-5.33-1.39-1.29,0-2.47.32-3.52.97-1.05.65-1.58,1.78-1.58,3.4,0,1.29.55,2.35,1.64,3.15,1.09.81,3.21,1.98,6.37,3.52,1.78.89,3.76,2,5.94,3.33,2.18,1.33,4.24,3.03,6.18,5.09,1.94,2.06,3.58,4.55,4.91,7.46,1.33,2.91,2,6.35,2,10.31,0,5.17-.85,9.62-2.55,13.34-1.7,3.72-3.96,6.75-6.79,9.09-2.83,2.35-6.04,4.08-9.64,5.21-3.6,1.13-7.26,1.7-10.97,1.7Z"/><path class="cls-1" d="M644.78,105.73c-2.91,0-5.68-.26-8.31-.79-2.63-.53-5.05-1.23-7.27-2.12-2.22-.89-4.26-1.9-6.12-3.03-1.86-1.13-3.44-2.26-4.73-3.4l12.61-20.01c1.86,1.54,3.9,2.79,6.12,3.76,2.22.97,4.43,1.46,6.61,1.46,1.37,0,2.53-.34,3.46-1.03.93-.69,1.39-1.68,1.39-2.97,0-1.53-.67-2.83-2-3.88-1.33-1.05-3.42-2.26-6.24-3.64-2.43-1.13-4.73-2.4-6.91-3.82-2.18-1.41-4.12-3.13-5.82-5.15-1.7-2.02-3.05-4.38-4.06-7.09-1.01-2.71-1.52-5.88-1.52-9.52,0-5.25.93-9.72,2.79-13.4,1.86-3.68,4.22-6.67,7.09-8.97,2.87-2.3,6.06-3.98,9.58-5.03,3.52-1.05,6.97-1.58,10.37-1.58,5.17,0,9.8.81,13.88,2.43,4.08,1.62,7.5,3.72,10.25,6.31l-12.97,19.76c-1.38-1.37-2.99-2.53-4.85-3.46-1.86-.93-3.64-1.39-5.33-1.39-1.29,0-2.47.32-3.52.97-1.05.65-1.58,1.78-1.58,3.4,0,1.29.55,2.35,1.64,3.15,1.09.81,3.21,1.98,6.37,3.52,1.78.89,3.76,2,5.94,3.33,2.18,1.33,4.24,3.03,6.18,5.09,1.94,2.06,3.58,4.55,4.91,7.46,1.33,2.91,2,6.35,2,10.31,0,5.17-.85,9.62-2.55,13.34-1.7,3.72-3.96,6.75-6.79,9.09-2.83,2.35-6.04,4.08-9.64,5.21-3.6,1.13-7.26,1.7-10.97,1.7Z"/><path class="cls-1" d="M682.98,17.7h26.68v85.85h-26.68V17.7Z"/><path class="cls-1" d="M757.06,103.55h-25.95v-63.54h-15.16v-22.31h56.26v22.31h-15.16v63.54Z"/><path class="cls-1" d="M778.52,17.7h45.83v23.16h-20.73v8.61h18.79v21.46h-18.79v8.97h22.31v23.64h-47.41V17.7Z"/><path class="cls-1" d="M859.39,17.7h26.68v85.85h-26.68V17.7Z"/><path class="cls-1" d="M918.44,105.73c-2.91,0-5.68-.26-8.31-.79-2.63-.53-5.05-1.23-7.28-2.12-2.22-.89-4.26-1.9-6.12-3.03-1.86-1.13-3.44-2.26-4.73-3.4l12.61-20.01c1.86,1.54,3.9,2.79,6.12,3.76,2.22.97,4.43,1.46,6.61,1.46,1.37,0,2.53-.34,3.46-1.03.93-.69,1.39-1.68,1.39-2.97,0-1.53-.67-2.83-2-3.88-1.33-1.05-3.42-2.26-6.24-3.64-2.42-1.13-4.73-2.4-6.91-3.82-2.18-1.41-4.12-3.13-5.82-5.15-1.7-2.02-3.05-4.38-4.06-7.09-1.01-2.71-1.52-5.88-1.52-9.52,0-5.25.93-9.72,2.79-13.4,1.86-3.68,4.22-6.67,7.09-8.97,2.87-2.3,6.06-3.98,9.58-5.03,3.52-1.05,6.97-1.58,10.37-1.58,5.17,0,9.8.81,13.88,2.43,4.08,1.62,7.5,3.72,10.25,6.31l-12.97,19.76c-1.38-1.37-2.99-2.53-4.85-3.46-1.86-.93-3.64-1.39-5.34-1.39-1.29,0-2.47.32-3.52.97-1.05.65-1.58,1.78-1.58,3.4,0,1.29.54,2.35,1.64,3.15,1.09.81,3.21,1.98,6.37,3.52,1.78.89,3.76,2,5.94,3.33,2.18,1.33,4.24,3.03,6.18,5.09,1.94,2.06,3.58,4.55,4.91,7.46s2,6.35,2,10.31c0,5.17-.85,9.62-2.55,13.34-1.7,3.72-3.96,6.75-6.79,9.09-2.83,2.35-6.04,4.08-9.64,5.21-3.6,1.13-7.26,1.7-10.97,1.7Z"/><path class="cls-1" d="M980.89,103.55V17.7h27.65c7.03,0,12.99,1.07,17.88,3.21,4.89,2.14,8.85,5.11,11.88,8.91,3.03,3.8,5.23,8.35,6.61,13.64,1.37,5.3,2.06,11.09,2.06,17.4s-.69,11.94-2.06,17.16c-1.38,5.21-3.58,9.7-6.61,13.46s-6.99,6.71-11.88,8.85c-4.89,2.14-10.85,3.21-17.88,3.21h-27.65ZM1020.41,60.87c0-6.38-1.01-11.34-3.03-14.85-2.02-3.52-4.81-5.27-8.37-5.27h-1.58v39.77h1.58c3.56,0,6.34-1.76,8.37-5.27,2.02-3.52,3.03-8.31,3.03-14.37Z"/><path class="cls-1" d="M1056.18,17.7h45.83v23.16h-20.73v8.61h18.79v21.46h-18.79v8.97h22.31v23.64h-47.41V17.7Z"/><path class="cls-1" d="M1126.14,103.55l-20.37-85.85h30.07l7.76,54.2h.36l7.52-54.2h28.74l-20.86,85.85h-33.22Z"/><path class="cls-1" d="M1185.8,17.7h45.83v23.16h-20.73v8.61h18.79v21.46h-18.79v8.97h22.31v23.64h-47.41V17.7Z"/><path class="cls-1" d="M1242.42,17.7h26.55v61.6h22.07v24.25h-48.62V17.7Z"/><path class="cls-1" d="M1291.77,60.38c0-6.87.83-13.1,2.49-18.67,1.66-5.58,4.04-10.33,7.15-14.25,3.11-3.92,6.89-6.93,11.34-9.03,4.44-2.1,9.42-3.15,14.91-3.15s10.47,1.05,14.91,3.15c4.44,2.1,8.22,5.11,11.34,9.03,3.11,3.92,5.5,8.67,7.15,14.25,1.66,5.58,2.49,11.8,2.49,18.67s-.83,13.12-2.49,18.73c-1.66,5.62-4.04,10.41-7.15,14.37-3.11,3.96-6.89,7.03-11.34,9.22-4.45,2.18-9.42,3.27-14.91,3.27s-10.47-1.09-14.91-3.27c-4.45-2.18-8.23-5.25-11.34-9.22-3.11-3.96-5.5-8.75-7.15-14.37-1.66-5.62-2.49-11.86-2.49-18.73ZM1318.45,60.38c0,5.58.75,10.21,2.24,13.88,1.5,3.68,3.82,5.52,6.97,5.52s5.47-1.84,6.97-5.52c1.5-3.68,2.24-8.31,2.24-13.88s-.75-10.16-2.24-13.76c-1.5-3.6-3.82-5.4-6.97-5.4s-5.48,1.8-6.97,5.4c-1.5,3.6-2.24,8.18-2.24,13.76Z"/><path class="cls-1" d="M1398.47,76.63v26.92h-25.71V17.7h30.68c3.4,0,6.83.49,10.31,1.46,3.47.97,6.61,2.59,9.4,4.85,2.79,2.26,5.05,5.26,6.79,8.97,1.74,3.72,2.61,8.37,2.61,13.94s-.83,9.88-2.49,13.64c-1.66,3.76-3.82,6.83-6.49,9.22-2.67,2.39-5.7,4.12-9.09,5.21-3.4,1.09-6.83,1.64-10.31,1.64h-5.7ZM1398.47,39.65v15.88h3.15c1.7,0,3.25-.73,4.67-2.2,1.41-1.47,2.12-3.46,2.12-5.99,0-2.77-.71-4.74-2.12-5.93-1.42-1.18-2.97-1.77-4.67-1.77h-3.15Z"/><path class="cls-1" d="M1440.91,17.7h45.83v23.16h-20.73v8.61h18.79v21.46h-18.79v8.97h22.31v23.64h-47.41V17.7Z"/><path class="cls-1" d="M1497.53,103.55V17.7h27.65c7.03,0,12.99,1.07,17.88,3.21,4.89,2.14,8.85,5.11,11.88,8.91,3.03,3.8,5.23,8.35,6.61,13.64,1.37,5.3,2.06,11.09,2.06,17.4s-.69,11.94-2.06,17.16c-1.38,5.21-3.58,9.7-6.61,13.46s-6.99,6.71-11.88,8.85c-4.89,2.14-10.85,3.21-17.88,3.21h-27.65ZM1537.06,60.87c0-6.38-1.01-11.34-3.03-14.85-2.02-3.52-4.81-5.27-8.37-5.27h-1.58v39.77h1.58c3.56,0,6.34-1.76,8.37-5.27,2.02-3.52,3.03-8.31,3.03-14.37Z"/><path class="cls-1" d="M1644.49,59.17c3.39,1.05,6.37,3.19,8.91,6.43,2.55,3.23,3.82,7.52,3.82,12.85,0,4.69-.77,8.63-2.3,11.82-1.54,3.19-3.58,5.78-6.12,7.76-2.55,1.98-5.46,3.4-8.73,4.24-3.27.85-6.65,1.27-10.12,1.27h-32.86V17.7h29.83c2.83,0,5.86.26,9.09.79,3.23.53,6.2,1.58,8.91,3.15,2.71,1.58,4.95,3.88,6.73,6.91,1.78,3.03,2.67,7.01,2.67,11.94,0,4.61-.91,8.41-2.73,11.4-1.82,2.99-4.22,5.3-7.21,6.91l.12.36ZM1621.45,39.41v11.28h4.37c1.7,0,3.05-.46,4.06-1.39,1.01-.93,1.52-2.44,1.52-4.55,0-1.78-.53-3.11-1.58-4-1.05-.89-2.38-1.33-4-1.33h-4.37ZM1621.45,69.35v12.25h4.61c1.86,0,3.37-.54,4.55-1.62,1.17-1.08,1.76-2.54,1.76-4.38,0-2.16-.65-3.74-1.94-4.74-1.29-1-2.75-1.5-4.37-1.5h-4.61Z"/><path class="cls-1" d="M1705.84,103.55h-25.95v-28.25l-21.95-57.59h28.49l6.43,31.65h.36l6.79-31.65h28.01l-22.19,57.59v28.25Z"/><path class="cls-1" d="M485.96,335.24h-14.79l-2.3,11.88h-26.31l20.25-85.85h32.62l20.37,85.85h-27.52l-2.3-11.88ZM474.07,314.87h8.73l-4-27.89h-.48l-4.24,27.89Z"/><path class="cls-1" d="M541.37,349.3c-2.91,0-5.68-.26-8.31-.79-2.63-.53-5.05-1.23-7.27-2.12-2.22-.89-4.26-1.9-6.12-3.03-1.86-1.13-3.44-2.26-4.73-3.4l12.61-20.01c1.86,1.54,3.9,2.79,6.12,3.76,2.22.97,4.43,1.46,6.61,1.46,1.37,0,2.53-.34,3.46-1.03.93-.69,1.39-1.68,1.39-2.97,0-1.53-.67-2.83-2-3.88-1.33-1.05-3.42-2.26-6.24-3.64-2.43-1.13-4.73-2.4-6.91-3.82-2.18-1.41-4.12-3.13-5.82-5.15-1.7-2.02-3.05-4.38-4.06-7.09-1.01-2.71-1.52-5.88-1.52-9.52,0-5.25.93-9.72,2.79-13.4,1.86-3.68,4.22-6.67,7.09-8.97,2.87-2.3,6.06-3.98,9.58-5.03,3.52-1.05,6.97-1.58,10.37-1.58,5.17,0,9.8.81,13.88,2.42,4.08,1.62,7.5,3.72,10.25,6.3l-12.97,19.76c-1.38-1.37-2.99-2.53-4.85-3.46-1.86-.93-3.64-1.39-5.33-1.39-1.29,0-2.47.32-3.52.97-1.05.65-1.58,1.78-1.58,3.39,0,1.29.55,2.35,1.64,3.15,1.09.81,3.21,1.98,6.37,3.52,1.78.89,3.76,2,5.94,3.33,2.18,1.33,4.24,3.03,6.18,5.09s3.58,4.55,4.91,7.46c1.33,2.91,2,6.35,2,10.31,0,5.17-.85,9.62-2.55,13.34-1.7,3.72-3.96,6.75-6.79,9.09-2.83,2.34-6.04,4.08-9.64,5.21-3.6,1.13-7.26,1.7-10.97,1.7Z"/><path class="cls-1" d="M638.25,335.24h-14.79l-2.3,11.88h-26.31l20.25-85.85h32.62l20.37,85.85h-27.52l-2.3-11.88ZM626.37,314.87h8.73l-4-27.89h-.48l-4.24,27.89Z"/><path class="cls-1" d="M722.03,294.13h18.67v22.55h-18.55v30.43h-26.19v-85.85h46.44v23.64h-20.37v9.21Z"/><path class="cls-1" d="M778.42,316.32h-2.19v30.8h-25.22v-85.85h31.95c4.94,0,9.25.65,12.94,1.94,3.68,1.29,6.7,3.15,9.05,5.58,2.35,2.42,4.11,5.36,5.29,8.79,1.17,3.44,1.76,7.3,1.76,11.58,0,2.91-.33,5.54-.97,7.88-.65,2.35-1.46,4.43-2.43,6.25-.97,1.82-2.07,3.33-3.29,4.55-1.22,1.21-2.43,2.1-3.65,2.67l13.74,36.62h-27.85l-9.12-30.8ZM776.23,283.22v15.04h2.18c.73,0,1.53-.1,2.42-.3.89-.2,1.7-.58,2.43-1.15.73-.56,1.33-1.33,1.82-2.3.48-.97.73-2.22.73-3.76,0-1.62-.22-2.91-.67-3.88-.45-.97-1.01-1.74-1.7-2.3-.69-.56-1.42-.93-2.18-1.09-.77-.16-1.48-.24-2.12-.24h-2.91Z"/><path class="cls-1" d="M818.18,303.95c0-6.87.83-13.09,2.49-18.67,1.66-5.58,4.04-10.33,7.15-14.25,3.11-3.92,6.89-6.93,11.34-9.03,4.44-2.1,9.42-3.15,14.91-3.15s10.47,1.05,14.91,3.15c4.44,2.1,8.22,5.11,11.34,9.03,3.11,3.92,5.5,8.67,7.15,14.25,1.66,5.58,2.49,11.8,2.49,18.67s-.83,13.12-2.49,18.73c-1.66,5.62-4.04,10.41-7.15,14.37-3.11,3.96-6.89,7.03-11.34,9.21-4.45,2.18-9.42,3.27-14.91,3.27s-10.47-1.09-14.91-3.27c-4.45-2.18-8.23-5.25-11.34-9.21-3.11-3.96-5.5-8.75-7.15-14.37-1.66-5.62-2.49-11.86-2.49-18.73ZM844.86,303.95c0,5.58.75,10.21,2.24,13.88,1.49,3.68,3.82,5.52,6.97,5.52s5.48-1.84,6.97-5.52c1.49-3.68,2.24-8.31,2.24-13.88s-.75-10.16-2.24-13.76c-1.5-3.6-3.82-5.4-6.97-5.4s-5.48,1.8-6.97,5.4c-1.5,3.6-2.24,8.18-2.24,13.76Z"/><path class="cls-1" d="M921.97,306.62h-.36l.97,40.5h-23.4v-85.85h28.01l13.46,41.83h.48l-.73-41.83h22.55v85.85h-27.28l-13.7-40.5Z"/><path class="cls-1" d="M1010.37,347.12h-25.95v-63.54h-15.16v-22.31h56.26v22.31h-15.16v63.54Z"/><path class="cls-1" d="M1023.22,303.23h25.95v18.67h-25.95v-18.67Z"/><path class="cls-1" d="M1058.26,261.27h45.83v23.16h-20.73v8.61h18.79v21.46h-18.79v8.97h22.31v23.64h-47.41v-85.85Z"/><path class="cls-1" d="M1137.68,306.62h-.36l.97,40.5h-23.4v-85.85h28.01l13.46,41.83h.48l-.73-41.83h22.55v85.85h-27.28l-13.7-40.5Z"/><path class="cls-1" d="M1191.27,347.12v-85.85h27.65c7.03,0,12.99,1.07,17.88,3.21,4.89,2.14,8.85,5.11,11.88,8.91,3.03,3.8,5.23,8.35,6.61,13.64,1.37,5.29,2.06,11.09,2.06,17.4s-.69,11.94-2.06,17.16c-1.38,5.21-3.58,9.7-6.61,13.46s-6.99,6.71-11.88,8.85c-4.89,2.14-10.85,3.21-17.88,3.21h-27.65ZM1230.8,304.44c0-6.38-1.01-11.34-3.03-14.85-2.02-3.52-4.81-5.27-8.37-5.27h-1.58v39.77h1.58c3.56,0,6.34-1.76,8.37-5.27,2.02-3.52,3.03-8.31,3.03-14.37Z"/><path class="cls-1" d="M1316.52,320.2v26.92h-25.71v-85.85h30.68c3.4,0,6.83.48,10.31,1.46,3.47.97,6.61,2.59,9.4,4.85,2.79,2.26,5.05,5.26,6.79,8.97,1.74,3.72,2.61,8.37,2.61,13.94s-.83,9.88-2.49,13.64c-1.66,3.76-3.82,6.83-6.49,9.21-2.67,2.39-5.7,4.12-9.09,5.21-3.4,1.09-6.83,1.64-10.31,1.64h-5.7ZM1316.52,283.22v15.88h3.15c1.7,0,3.25-.73,4.67-2.2,1.41-1.47,2.12-3.46,2.12-5.99,0-2.77-.71-4.74-2.12-5.93-1.42-1.18-2.97-1.77-4.67-1.77h-3.15Z"/><path class="cls-1" d="M1386.37,316.32h-2.19v30.8h-25.22v-85.85h31.95c4.94,0,9.25.65,12.94,1.94,3.69,1.29,6.7,3.15,9.05,5.58,2.35,2.42,4.11,5.36,5.29,8.79,1.17,3.44,1.76,7.3,1.76,11.58,0,2.91-.33,5.54-.97,7.88-.65,2.35-1.46,4.43-2.43,6.25-.97,1.82-2.07,3.33-3.29,4.55-1.22,1.21-2.43,2.1-3.65,2.67l13.74,36.62h-27.85l-9.12-30.8ZM1384.18,283.22v15.04h2.18c.73,0,1.53-.1,2.42-.3.89-.2,1.7-.58,2.42-1.15.73-.56,1.33-1.33,1.82-2.3.48-.97.73-2.22.73-3.76,0-1.62-.22-2.91-.67-3.88-.45-.97-1.01-1.74-1.7-2.3-.69-.56-1.42-.93-2.18-1.09-.77-.16-1.48-.24-2.12-.24h-2.91Z"/><path class="cls-1" d="M1426.13,303.95c0-6.87.83-13.09,2.49-18.67,1.66-5.58,4.04-10.33,7.15-14.25,3.11-3.92,6.89-6.93,11.34-9.03,4.44-2.1,9.42-3.15,14.91-3.15s10.47,1.05,14.91,3.15c4.44,2.1,8.22,5.11,11.34,9.03,3.11,3.92,5.5,8.67,7.15,14.25,1.66,5.58,2.49,11.8,2.49,18.67s-.83,13.12-2.49,18.73c-1.66,5.62-4.04,10.41-7.15,14.37-3.11,3.96-6.89,7.03-11.34,9.21-4.45,2.18-9.42,3.27-14.91,3.27s-10.47-1.09-14.91-3.27c-4.45-2.18-8.23-5.25-11.34-9.21-3.11-3.96-5.5-8.75-7.15-14.37-1.66-5.62-2.49-11.86-2.49-18.73ZM1452.8,303.95c0,5.58.75,10.21,2.24,13.88,1.5,3.68,3.82,5.52,6.97,5.52s5.47-1.84,6.97-5.52c1.5-3.68,2.24-8.31,2.24-13.88s-.75-10.16-2.24-13.76c-1.5-3.6-3.82-5.4-6.97-5.4s-5.48,1.8-6.97,5.4c-1.5,3.6-2.24,8.18-2.24,13.76Z"/><path class="cls-1" d="M1520.83,349.06c-3.32,0-6.43-.53-9.34-1.58-2.91-1.05-5.56-2.53-7.94-4.42-2.38-1.9-4.39-4.16-6-6.79-1.62-2.63-2.79-5.48-3.52-8.55l20.86-9.46c.4,1.62.95,2.97,1.64,4.06.69,1.09,1.59,1.64,2.73,1.64,1.78,0,2.89-.77,3.33-2.3.44-1.53.67-3.72.67-6.55v-53.83h26.19v56.14c0,4.77-.55,9.12-1.64,13.04-1.1,3.92-2.8,7.26-5.12,10-2.32,2.75-5.28,4.87-8.89,6.37-3.61,1.49-7.93,2.24-12.96,2.24Z"/><path class="cls-1" d="M1561.57,261.27h45.83v23.16h-20.73v8.61h18.79v21.46h-18.79v8.97h22.31v23.64h-47.41v-85.85Z"/><path class="cls-1" d="M1614.79,304.2c0-6.87.89-13.1,2.67-18.67,1.78-5.58,4.24-10.35,7.4-14.31,3.15-3.96,6.89-7.01,11.22-9.15,4.32-2.14,9.07-3.21,14.25-3.21,3.23,0,6.18.3,8.85.91,2.67.61,5.03,1.44,7.09,2.49,2.06,1.05,3.88,2.22,5.46,3.52,1.58,1.29,2.93,2.67,4.06,4.12l-14.07,20.01c-1.05-1.37-2.22-2.61-3.52-3.7-1.29-1.09-3.11-1.64-5.46-1.64-1.7,0-3.21.48-4.55,1.46-1.33.97-2.49,2.32-3.46,4.06-.97,1.74-1.7,3.82-2.18,6.24-.49,2.43-.73,5.05-.73,7.88s.24,5.42.73,7.76c.49,2.35,1.21,4.39,2.18,6.12.97,1.74,2.14,3.09,3.52,4.06,1.37.97,2.91,1.46,4.61,1.46,1.94,0,3.62-.55,5.03-1.64,1.41-1.09,2.57-2.28,3.46-3.58l14.67,19.4c-1.21,1.62-2.63,3.13-4.24,4.55-1.62,1.42-3.46,2.65-5.52,3.7-2.06,1.05-4.41,1.9-7.03,2.55-2.63.65-5.6.97-8.91.97-5.17,0-9.92-1.09-14.25-3.27-4.33-2.18-8.06-5.27-11.22-9.28-3.15-4-5.62-8.77-7.4-14.31-1.78-5.54-2.67-11.7-2.67-18.49Z"/><path class="cls-1" d="M1716.53,347.12h-25.95v-63.54h-15.16v-22.31h56.26v22.31h-15.16v63.54Z"/><path class="cls-1" d="M1.82,432.44c0-9.86,1.23-19.78,3.7-29.77,2.46-9.98,6.12-19.06,10.97-27.22l14.79,5.94c-3.72,7.6-6.59,15.7-8.61,24.31-2.02,8.61-3.03,17.52-3.03,26.74s1.01,18.13,3.03,26.74c2.02,8.61,4.89,16.71,8.61,24.31l-14.79,5.94c-4.85-8.17-8.51-17.24-10.97-27.22-2.47-9.98-3.7-19.9-3.7-29.77Z"/><path class="cls-1" d="M79.3,455.48h-14.79l-2.3,11.88h-26.31l20.25-85.85h32.62l20.37,85.85h-27.52l-2.3-11.88ZM67.41,435.11h8.73l-4-27.89h-.48l-4.24,27.89Z"/><path class="cls-1" d="M137.74,426.87h-.36l.97,40.5h-23.4v-85.85h28.01l13.46,41.83h.49l-.73-41.83h22.55v85.85h-27.28l-13.7-40.5Z"/><path class="cls-1" d="M191.33,467.37v-85.85h27.65c7.03,0,12.99,1.07,17.88,3.21,4.89,2.14,8.85,5.11,11.88,8.91,3.03,3.8,5.23,8.35,6.61,13.64,1.37,5.29,2.06,11.09,2.06,17.4s-.69,11.94-2.06,17.16c-1.38,5.21-3.58,9.7-6.61,13.46s-6.99,6.71-11.88,8.85c-4.89,2.14-10.85,3.21-17.88,3.21h-27.65ZM230.86,424.69c0-6.38-1.01-11.34-3.03-14.85-2.02-3.52-4.81-5.27-8.37-5.27h-1.58v39.77h1.58c3.56,0,6.34-1.76,8.37-5.27,2.02-3.52,3.03-8.31,3.03-14.37Z"/><path class="cls-1" d="M318.29,436.57h-2.19v30.8h-25.22v-85.85h31.95c4.94,0,9.25.65,12.94,1.94,3.68,1.29,6.7,3.15,9.05,5.58,2.35,2.42,4.11,5.36,5.29,8.79,1.17,3.44,1.76,7.3,1.76,11.58,0,2.91-.33,5.54-.97,7.88-.65,2.35-1.46,4.43-2.43,6.25-.97,1.82-2.07,3.33-3.29,4.55-1.22,1.21-2.43,2.1-3.65,2.67l13.74,36.62h-27.85l-9.12-30.8ZM316.1,403.47v15.04h2.18c.73,0,1.53-.1,2.42-.3.89-.2,1.7-.58,2.43-1.15.73-.56,1.33-1.33,1.82-2.3.48-.97.73-2.22.73-3.76,0-1.62-.22-2.91-.67-3.88-.45-.97-1.01-1.74-1.7-2.3-.69-.56-1.42-.93-2.18-1.09-.77-.16-1.48-.24-2.12-.24h-2.91Z"/><path class="cls-1" d="M361.44,381.52h45.83v23.16h-20.73v8.61h18.79v21.46h-18.79v8.97h22.31v23.64h-47.41v-85.85Z"/><path class="cls-1" d="M414.55,423.47h25.95v18.67h-25.95v-18.67Z"/><path class="cls-1" d="M497,422.99c3.4,1.05,6.37,3.19,8.91,6.43,2.55,3.23,3.82,7.52,3.82,12.85,0,4.69-.77,8.63-2.3,11.82-1.54,3.19-3.58,5.78-6.12,7.76-2.55,1.98-5.46,3.39-8.73,4.24-3.27.85-6.65,1.27-10.12,1.27h-32.86v-85.85h29.83c2.83,0,5.86.26,9.09.79,3.23.53,6.2,1.58,8.91,3.15,2.71,1.58,4.95,3.88,6.73,6.91,1.78,3.03,2.67,7.01,2.67,11.94,0,4.61-.91,8.41-2.73,11.4-1.82,2.99-4.22,5.3-7.21,6.91l.12.36ZM473.96,403.22v11.28h4.36c1.7,0,3.05-.46,4.06-1.39,1.01-.93,1.52-2.44,1.52-4.55,0-1.78-.53-3.11-1.58-4-1.05-.89-2.39-1.33-4-1.33h-4.36ZM473.96,433.17v12.25h4.61c1.86,0,3.37-.54,4.55-1.62,1.17-1.08,1.76-2.54,1.76-4.38,0-2.16-.65-3.74-1.94-4.74-1.29-1-2.75-1.5-4.37-1.5h-4.61Z"/><path class="cls-1" d="M547.33,436.57h-2.19v30.8h-25.22v-85.85h31.95c4.94,0,9.25.65,12.94,1.94,3.68,1.29,6.7,3.15,9.05,5.58,2.35,2.42,4.11,5.36,5.29,8.79,1.17,3.44,1.76,7.3,1.76,11.58,0,2.91-.33,5.54-.97,7.88-.65,2.35-1.46,4.43-2.43,6.25-.97,1.82-2.07,3.33-3.29,4.55-1.22,1.21-2.43,2.1-3.65,2.67l13.74,36.62h-27.85l-9.12-30.8ZM545.14,403.47v15.04h2.18c.73,0,1.53-.1,2.42-.3.89-.2,1.7-.58,2.43-1.15.73-.56,1.33-1.33,1.82-2.3.48-.97.73-2.22.73-3.76,0-1.62-.22-2.91-.67-3.88-.45-.97-1.01-1.74-1.7-2.3-.69-.56-1.42-.93-2.18-1.09-.77-.16-1.48-.24-2.12-.24h-2.91Z"/><path class="cls-1" d="M627.1,455.48h-14.79l-2.3,11.88h-26.31l20.25-85.85h32.62l20.37,85.85h-27.52l-2.3-11.88ZM615.22,435.11h8.73l-4-27.89h-.48l-4.24,27.89Z"/><path class="cls-1" d="M685.54,426.87h-.36l.97,40.5h-23.4v-85.85h28.01l13.46,41.83h.49l-.73-41.83h22.55v85.85h-27.28l-13.7-40.5Z"/><path class="cls-1" d="M739.14,467.37v-85.85h27.65c7.03,0,12.99,1.07,17.88,3.21,4.89,2.14,8.85,5.11,11.88,8.91,3.03,3.8,5.23,8.35,6.61,13.64,1.37,5.29,2.06,11.09,2.06,17.4s-.69,11.94-2.06,17.16c-1.38,5.21-3.58,9.7-6.61,13.46s-6.99,6.71-11.88,8.85c-4.89,2.14-10.85,3.21-17.88,3.21h-27.65ZM778.66,424.69c0-6.38-1.01-11.34-3.03-14.85-2.02-3.52-4.81-5.27-8.37-5.27h-1.58v39.77h1.58c3.56,0,6.34-1.76,8.37-5.27,2.02-3.52,3.03-8.31,3.03-14.37Z"/><path class="cls-1" d="M814.43,381.52h45.83v23.16h-20.73v8.61h18.79v21.46h-18.79v8.97h22.31v23.64h-47.41v-85.85Z"/><path class="cls-1" d="M871.05,467.37v-85.85h27.64c7.03,0,12.99,1.07,17.88,3.21,4.89,2.14,8.85,5.11,11.88,8.91,3.03,3.8,5.23,8.35,6.61,13.64,1.37,5.29,2.06,11.09,2.06,17.4s-.69,11.94-2.06,17.16c-1.38,5.21-3.58,9.7-6.61,13.46s-6.99,6.71-11.88,8.85c-4.89,2.14-10.85,3.21-17.88,3.21h-27.64ZM910.58,424.69c0-6.38-1.01-11.34-3.03-14.85-2.02-3.52-4.81-5.27-8.37-5.27h-1.58v39.77h1.58c3.55,0,6.34-1.76,8.37-5.27,2.02-3.52,3.03-8.31,3.03-14.37Z"/><path class="cls-1" d="M1018.01,422.99c3.39,1.05,6.37,3.19,8.91,6.43,2.55,3.23,3.82,7.52,3.82,12.85,0,4.69-.77,8.63-2.3,11.82-1.54,3.19-3.58,5.78-6.12,7.76-2.55,1.98-5.46,3.39-8.73,4.24-3.27.85-6.65,1.27-10.12,1.27h-32.86v-85.85h29.83c2.83,0,5.86.26,9.09.79,3.23.53,6.2,1.58,8.91,3.15,2.71,1.58,4.95,3.88,6.73,6.91,1.78,3.03,2.67,7.01,2.67,11.94,0,4.61-.91,8.41-2.73,11.4-1.82,2.99-4.22,5.3-7.21,6.91l.12.36ZM994.97,403.22v11.28h4.37c1.7,0,3.05-.46,4.06-1.39,1.01-.93,1.52-2.44,1.52-4.55,0-1.78-.53-3.11-1.58-4-1.05-.89-2.38-1.33-4-1.33h-4.37ZM994.97,433.17v12.25h4.61c1.86,0,3.37-.54,4.55-1.62,1.17-1.08,1.76-2.54,1.76-4.38,0-2.16-.65-3.74-1.94-4.74-1.29-1-2.75-1.5-4.37-1.5h-4.61Z"/><path class="cls-1" d="M1079.36,467.37h-25.95v-28.25l-21.95-57.59h28.49l6.43,31.65h.36l6.79-31.65h28.01l-22.19,57.59v28.25Z"/><path class="cls-1" d="M1189.34,402.01c0,5.42-1.32,9.84-3.94,13.28-2.63,3.44-5.88,5.88-9.76,7.33l.12.36c2.91,1.05,5.38,2.91,7.4,5.58,2.02,2.67,3.03,6.06,3.03,10.19,0,5.26-.95,9.68-2.85,13.28-1.9,3.6-4.35,6.55-7.34,8.85-2.99,2.3-6.35,3.96-10.06,4.97-3.72,1.01-7.4,1.52-11.03,1.52h-32.98l14.91-85.85h29.22c2.5,0,5.13.32,7.88.97,2.75.65,5.27,1.76,7.58,3.33s4.18,3.68,5.64,6.31c1.46,2.63,2.18,5.92,2.18,9.88ZM1162.18,438.75c0-2.1-.59-3.62-1.76-4.55-1.17-.93-2.53-1.39-4.06-1.39h-4.97l-2.3,13.46h4.85c2.34,0,4.3-.61,5.88-1.82,1.58-1.21,2.37-3.11,2.37-5.7ZM1166.66,407.83c0-1.54-.49-2.81-1.46-3.82-.97-1.01-2.26-1.52-3.88-1.52h-4.61l-2.18,12.25h4.73c1.7,0,3.35-.5,4.97-1.52,1.62-1.01,2.43-2.81,2.43-5.4Z"/><path class="cls-1" d="M1258.69,433.9c-.89,5.09-2.08,9.82-3.58,14.19-1.5,4.37-3.58,8.14-6.25,11.34-2.67,3.19-6.04,5.72-10.12,7.58-4.08,1.86-9.08,2.79-14.97,2.79-4.77,0-8.95-.65-12.55-1.94-3.6-1.29-6.61-3.09-9.03-5.4-2.42-2.3-4.26-5.05-5.52-8.25-1.25-3.19-1.88-6.69-1.88-10.49,0-1.62.08-3.25.24-4.91.16-1.66.4-3.33.73-5.03l9.09-52.26h25.58l-8.73,50.44c-.24,1.38-.45,2.65-.61,3.82-.16,1.17-.24,2.24-.24,3.21,0,1.94.38,3.48,1.15,4.61.77,1.13,1.96,1.7,3.58,1.7,2.75,0,4.63-1.19,5.64-3.58,1.01-2.38,1.88-5.64,2.61-9.76l8.73-50.44h25.34l-9.22,52.38Z"/><path class="cls-1" d="M1313.38,406.98c-1.29-1.29-2.91-2.38-4.85-3.27-1.94-.89-3.84-1.33-5.7-1.33-.73,0-1.48.08-2.24.24-.77.16-1.48.47-2.12.91-.65.45-1.17,1.01-1.58,1.7-.41.69-.61,1.56-.61,2.61,0,1.46.53,2.63,1.58,3.52,1.05.89,2.87,2.1,5.46,3.64,1.46.81,3.05,1.86,4.79,3.15,1.74,1.29,3.4,2.87,4.97,4.73,1.58,1.86,2.89,4.08,3.94,6.67,1.05,2.59,1.58,5.58,1.58,8.97,0,5.42-.97,10.06-2.91,13.94s-4.47,7.07-7.58,9.58c-3.11,2.51-6.63,4.35-10.55,5.52-3.92,1.17-7.82,1.76-11.7,1.76-5.9,0-11.26-.85-16.07-2.55-4.81-1.7-8.59-3.8-11.34-6.3l14.55-19.28c1.62,1.38,3.54,2.53,5.76,3.46,2.22.93,4.47,1.39,6.73,1.39,1.62,0,3.09-.42,4.43-1.27s2-2.2,2-4.06c0-1.37-.53-2.65-1.58-3.82-1.05-1.17-2.99-2.56-5.82-4.18-1.86-1.05-3.68-2.24-5.46-3.58-1.78-1.33-3.35-2.87-4.73-4.61-1.38-1.74-2.47-3.78-3.27-6.12-.81-2.34-1.21-5.05-1.21-8.12,0-4.12.75-8.04,2.24-11.76,1.5-3.72,3.66-6.97,6.49-9.76,2.83-2.79,6.26-5.01,10.31-6.67,4.04-1.66,8.61-2.49,13.7-2.49,5.66,0,10.71.83,15.16,2.49,4.44,1.66,7.84,3.74,10.18,6.25l-14.55,18.67Z"/><path class="cls-1" d="M1378.12,403.83h-20.25l-1.82,9.7h18.67l-3.52,20.73h-18.67l-1.82,10.43h22.55l-3.88,22.67h-46.8l14.91-85.85h44.5l-3.88,22.31Z"/><path class="cls-1" d="M1460.09,403.1h-15.28l-11.16,64.26h-25.1l11.28-64.26h-15.28l3.76-21.58h55.53l-3.76,21.58Z"/><path class="cls-1" d="M1511.01,403.83h-20.25l-1.82,9.7h18.67l-3.52,20.73h-18.67l-1.82,10.43h22.55l-3.88,22.67h-46.8l14.91-85.85h44.5l-3.88,22.31Z"/><path class="cls-1" d="M1567.76,422.87l11.16,44.5h-28.74l-6.3-37.71h-.49l-6.55,37.71h-25.34l14.91-85.85h25.34l-5.94,34.07h.61l18.07-34.07h28.98l-25.71,41.35Z"/><path class="cls-1" d="M1641.96,403.83h-20.25l-1.82,9.7h18.67l-3.52,20.73h-18.67l-1.82,10.43h22.55l-3.88,22.67h-46.8l14.91-85.85h44.5l-3.88,22.31Z"/><path class="cls-1" d="M1690.22,467.37h-47.77l14.91-85.85h25.58l-10.79,62.44h22.19l-4.12,23.4Z"/><path class="cls-1" d="M1731.2,432.44c0,9.86-1.23,19.79-3.7,29.77-2.47,9.98-6.12,19.06-10.97,27.22l-14.79-5.94c3.72-7.6,6.59-15.7,8.61-24.31,2.02-8.61,3.03-17.52,3.03-26.74s-1.01-18.13-3.03-26.74c-2.02-8.61-4.89-16.71-8.61-24.31l14.79-5.94c4.85,8.17,8.51,17.24,10.97,27.22,2.46,9.98,3.7,19.91,3.7,29.77Z"/><path class="cls-1" d="M1055.03,208.06h-15.4l-4.49,12.61h-26.43l36.13-85.85h31.4l4.49,85.85h-25.71v-12.61ZM1045.7,188.79h9.7v-28.25h-.48l-9.22,28.25Z"/><path class="cls-1" d="M1134.58,220.68h-47.77l14.91-85.85h25.58l-10.79,62.44h22.19l-4.12,23.4Z"/><path class="cls-1" d="M1168.16,220.68h-25.71l14.91-85.85h25.71l-14.91,85.85ZM1184.77,115.43c0,2.1-.36,4.06-1.09,5.88s-1.72,3.4-2.97,4.73c-1.25,1.33-2.73,2.39-4.43,3.15-1.7.77-3.52,1.15-5.46,1.15s-3.64-.32-5.09-.97c-1.46-.65-2.67-1.52-3.64-2.61s-1.7-2.34-2.18-3.76c-.48-1.41-.73-2.85-.73-4.3,0-1.94.34-3.82,1.03-5.64.69-1.82,1.64-3.43,2.85-4.85,1.21-1.41,2.67-2.55,4.37-3.4,1.7-.85,3.56-1.27,5.58-1.27,3.88,0,6.81,1.15,8.79,3.46,1.98,2.3,2.97,5.11,2.97,8.43Z"/><path class="cls-1" d="M1265.28,220.68h-24.86l9.82-50.32h-.36l-20.01,50.32h-16.25l-1.7-50.32h-.49l-7.64,50.32h-22.79l14.91-85.85h30.07l2.55,46.32h.49l17.82-46.32h33.34l-14.91,85.85Z"/><path class="cls-1" d="M1358.65,176.18l11.16,44.5h-28.74l-6.3-37.71h-.49l-6.55,37.71h-25.34l14.91-85.85h25.34l-5.94,34.07h.61l18.07-34.07h28.98l-25.71,41.35Z"/><path class="cls-1" d="M1415.63,208.06h-15.4l-4.49,12.61h-26.43l36.13-85.85h31.4l4.49,85.85h-25.71v-12.61ZM1406.3,188.79h9.7v-28.25h-.48l-9.22,28.25Z"/><path class="cls-1" d="M1517.73,158.96c0,6.23-1.23,11.48-3.7,15.76-2.47,4.29-5.96,7.4-10.49,9.34l8.12,36.62h-26.8l-4.61-31.28h-3.15l-5.46,31.28h-24.25l14.91-85.85h29.71c8.33,0,14.69,2.02,19.1,6.06,4.4,4.04,6.61,10.06,6.61,18.07ZM1492.14,162.23c0-2.5-.67-4.16-2-4.97-1.33-.81-2.61-1.21-3.82-1.21h-3.4l-2.79,15.88h2.67c2.42,0,4.59-.73,6.49-2.18,1.9-1.46,2.85-3.96,2.85-7.52Z"/><path class="cls-1" d="M1557.01,208.06h-15.4l-4.49,12.61h-26.43l36.13-85.85h31.4l4.49,85.85h-25.71v-12.61ZM1547.67,188.79h9.7v-28.25h-.48l-9.22,28.25Z"/><path class="cls-1" d="M1641.77,161.87c-.97-1.21-2.06-2.28-3.27-3.21-1.21-.93-3.03-1.39-5.46-1.39s-4.59.87-6.49,2.61c-1.9,1.74-3.54,3.96-4.91,6.67-1.38,2.71-2.43,5.7-3.15,8.97-.73,3.27-1.09,6.45-1.09,9.52,0,3.96.73,7.15,2.18,9.58,1.46,2.42,3.84,3.64,7.15,3.64,1.94,0,3.6-.42,4.97-1.27,1.37-.85,2.63-1.76,3.76-2.73l10.91,19.52c-2.67,2.59-6.02,4.79-10.06,6.61-4.04,1.82-8.73,2.73-14.07,2.73s-9.58-.83-13.46-2.49c-3.88-1.66-7.14-3.98-9.76-6.97-2.63-2.99-4.63-6.59-6-10.79-1.38-4.2-2.06-8.89-2.06-14.07,0-7.44,1.03-14.57,3.09-21.4,2.06-6.83,4.97-12.83,8.73-18.01,3.76-5.17,8.26-9.29,13.52-12.37,5.25-3.07,11.03-4.61,17.34-4.61,3.47,0,6.53.28,9.15.85,2.63.57,4.93,1.33,6.91,2.3,1.98.97,3.68,2.06,5.09,3.27,1.41,1.21,2.69,2.47,3.82,3.76l-16.85,19.28Z"/><path class="cls-1" d="M1689.66,208.06h-15.4l-4.49,12.61h-26.43l36.13-85.85h31.4l4.49,85.85h-25.71v-12.61ZM1680.32,188.79h9.7v-28.25h-.48l-9.22,28.25Z"/></svg>