<?xml version="1.0" encoding="UTF-8"?><svg id="Layer_1" xmlns="http://www.w3.org/2000/svg" viewBox="0 0 952.39 595.19"><defs><style>.cls-1{fill:none;stroke:#151db5;stroke-miterlimit:10;stroke-width:21.93px;}.cls-2{fill:#151db5;}</style></defs><path class="cls-2" d="M183.34,119.57c3.63,0,6.28,3.3,5.29,6.94-.33,1.32-1.65,2.64-2.97,3.3-3.96,1.98-6.94,6.28-9.91,16.19l-42.28,147.99c-.33,1.65-1.98,2.64-3.96,2.31-1.32-.33-2.31-1.32-2.64-2.64l-26.43-95.14c-.66-2.31-3.96-2.31-4.62,0l-32.04,95.47c-.66,1.65-2.31,2.64-3.96,2.31-1.32-.33-2.31-1.32-2.64-2.64L16.19,149.64c-3.96-14.86-6.94-18.83-11.23-20.15-1.98-.66-3.3-2.64-3.3-4.96,0-3.3,2.31-4.96,4.96-4.96h39.64c2.97,0,5.29,2.64,4.96,5.62-.33,1.98-1.98,3.96-3.96,4.29-6.61,1.98-9.58,5.29-9.58,8.59,0,3.63,1.32,7.6,2.64,11.56l24.78,91.17c.66,2.64,4.29,2.97,5.29.33l20.15-61.11c1.32-4.29,1.32-8.92.33-13.54l-3.63-14.54c-4.29-16.85-7.93-20.81-15.2-22.46-2.64-.66-4.29-2.97-3.96-5.95.33-2.31,2.64-3.96,5.29-3.96h45.92c2.64,0,5.29,2.64,4.62,5.62-.33,2.31-1.98,3.96-4.29,4.29-9.91,1.65-11.56,3.63-11.56,9.25s1.32,11.23,4.62,23.12l21.47,79.61c.66,1.65,2.97,1.65,3.63,0l22.79-78.95c3.3-10.24,4.96-19.49,4.96-25.77,0-3.96-1.98-6.61-8.26-7.6-2.31-.33-4.29-2.64-3.96-5.29.33-2.64,2.64-4.29,4.96-4.29h25.11Z"/><path class="cls-2" d="M314.81,249.73c0,24.11,1.32,28.74,12.55,32.37,2.31.66,3.96,2.64,3.96,4.96,0,2.97-2.31,5.29-5.29,5.29h-48.23c-2.64,0-4.96-2.31-4.96-4.96,0-2.31,1.65-4.29,3.96-4.96,12.55-2.64,14.87-8.59,14.87-32.7v-72.67c0-26.76-6.28-40.63-20.48-40.63s-31.05,16.85-31.05,38.65v74.66c0,24.11,2.31,30.06,14.87,32.7,2.31.66,3.96,2.64,3.96,4.96,0,2.64-2.31,4.96-4.96,4.96h-49.55c-2.64,0-4.96-2.31-4.96-4.96s1.65-4.62,3.96-4.96c12.22-3.3,13.54-8.26,13.54-32.7V74.98c0-16.52-7.93-20.48-13.87-21.47-2.97-.33-4.96-2.97-4.29-5.95.66-1.98,2.31-3.63,4.29-3.96,6.28-.99,18.17-3.96,32.04-13.21.99-.66,2.64-.66,3.96.33.66.66.99,1.65.99,2.64v105.71c0,2.31,3.3,3.3,4.62,1.32,10.9-17.51,21.47-24.78,36.01-24.78,22.46,0,34.02,20.81,34.02,61.11v73Z"/><path class="cls-2" d="M433.72,296.31c-8.59,0-16.19-5.62-19.16-19.82-.66-2.97-4.29-3.63-5.95-1.32-12.55,17.18-24.44,21.14-35.02,21.14-17.18,0-29.07-14.87-29.07-39.97,0-20.15,8.59-35.02,19.16-44.93,7.93-7.6,17.84-14.54,45.59-29.07,2.64-1.32,4.29-3.96,4.29-6.61v-16.19c0-23.78-9.25-34.69-21.47-34.69-11.23,0-19.49,8.59-19.49,18.83,0,6.94,1.65,8.59,1.65,16.19s-2.31,15.53-12.55,15.53c-7.6,0-13.87-7.27-13.87-17.51,0-30.06,31.38-42.28,47.57-42.28s26.1,6.28,32.7,17.18c6.61,11.23,7.6,19.49,7.6,42.61v73.67c0,17.51,2.64,25.11,8.59,25.11,7.27,0,9.58-14.87,9.58-28.41.33-1.32.99-2.64,2.31-2.97,1.65,0,2.97.99,3.3,2.64.33,25.11-.99,50.87-25.77,50.87ZM413.57,195.55c0-2.97-2.97-4.62-5.62-3.3-22.79,11.89-38.98,24.78-38.98,52.19,0,20.15,8.26,29.4,18.83,29.4,14.2,0,25.77-20.48,25.77-36.01v-42.28Z"/><path class="cls-2" d="M543.06,246.75c-3.3,31.38-18.17,49.55-37.33,49.55s-24.45-17.51-24.45-46.91v-113.97c0-1.98-1.65-3.63-3.63-3.63h-4.62c-3.96,0-7.27-3.3-7.27-7.27,0-2.97,1.32-5.29,3.96-6.61,11.56-6.28,26.43-23.78,29.73-37.66.33-.99,1.32-1.98,2.31-1.98,1.65,0,2.64,1.32,2.64,2.64v35.02c0,1.98,1.65,3.63,3.63,3.63h18.17c3.3,0,5.95,2.64,5.95,6.28,0,3.3-2.64,5.95-5.95,5.95h-18.17c-1.98,0-3.63,1.65-3.63,3.63v109.34c0,22.79.99,31.38,11.89,31.38,8.92,0,16.52-13.87,19.82-30.06.33-1.65,1.65-2.97,3.3-2.97,1.98-.33,3.96,1.65,3.63,3.63Z"/><path class="cls-2" d="M336.03,402.27c10.24-53.18,41.95-88.86,79.28-88.86,33.69,0,52.85,34.69,42.61,87.87-10.24,53.51-42.61,92.49-79.94,92.49-33.36,0-52.19-37.99-41.95-91.5ZM408.04,323.98c-19.16,0-36.34,22.79-43.94,61.11-5.62,30.39-6.61,58.14-.33,78.62,3.63,12.55,10.9,19.49,20.81,19.49,20.48,0,37.99-27.09,46.58-71.68,4.96-26.1,4.96-52.52-.66-68.38-4.62-11.56-10.57-19.16-22.46-19.16Z"/><path class="cls-2" d="M582.46,333.56c-1.98,10.57-8.92,17.18-15.53,17.18-9.91,0-4.29-14.87-15.2-14.87-10.24,0-26.43,35.68-32.7,68.05l-15.2,80.6c-.66,2.97-3.3,5.29-6.61,5.29h-11.89c-2.97,0-5.29-2.64-4.62-5.62l20.48-108.02,3.3-15.53c3.3-17.51,2.64-25.77-3.3-25.77-7.27,0-12.22,15.2-15.2,28.74-.33,1.32-1.32,2.64-2.64,2.64-1.65.33-2.97-.99-2.64-2.31,4.29-25.11,10.57-50.87,35.35-50.87,8.59,0,15.86,8.59,14.21,31.38,0,2.31,2.64,2.97,3.63.99,10.24-21.14,25.44-32.37,36.01-32.37,9.25,0,15.2,6.61,12.55,20.48Z"/><path class="cls-2" d="M677.59,446.21c-3.63,17.51-2.64,25.77,3.3,25.77,7.27,0,12.55-15.2,15.2-28.74.33-1.32,1.65-2.31,2.97-2.64,1.65-.33,2.64.99,2.64,2.64-4.29,24.77-10.57,50.54-35.68,50.54-9.25,0-16.52-9.25-13.87-35.35.33-2.31-2.64-3.3-3.63-.99-9.91,19.82-23.45,36.34-38.65,36.34-30.72,0-44.6-33.36-35.02-82.58,10.24-54.51,44.26-97.78,75.98-97.78,9.25,0,15.53,2.64,22.13,10.9,1.32,1.98,4.62.66,5.29-1.98l9.58-49.88c2.97-16.19-4.29-20.15-9.91-21.14-2.64-.33-4.29-3.3-2.97-6.28.99-1.98,2.97-3.3,4.96-3.63,6.28-.99,18.83-4.29,34.36-13.21,1.32-.99,2.97-.99,3.96.33.66.66.99,1.65.66,2.64l-41.29,215.05ZM649.85,323.98c-21.14,0-39.97,28.41-48.56,72.01-8.92,47.24-2.64,77.96,20.48,77.96,14.54,0,34.69-39.64,43.27-82.58l5.29-29.07c3.96-20.15-5.62-38.32-20.48-38.32Z"/><path class="cls-2" d="M818.97,429.69c-6.28,31.38-24.11,64.08-61.77,64.08-32.37,0-45.59-34.35-35.35-87.21,10.24-54.18,40.3-93.49,74.99-93.49,25.44,0,39.64,20.15,35.68,45.26-5.62,39.97-45.59,57.48-84.9,62.1-3.3.33-5.62,2.97-5.95,5.95-2.64,28.74,8.92,45.92,31.38,45.92,20.48,0,33.03-20.48,40.96-43.93.33-.99,1.32-1.98,2.31-1.98,1.65,0,2.97,1.65,2.64,3.3ZM742.66,407.56c0,2.97,2.64,5.29,5.29,4.62,22.79-5.29,55.17-19.82,58.14-54.51,1.98-25.11-6.61-31.38-17.51-31.38-14.21,0-37,25.11-43.27,62.1-.99,6.61-1.98,12.88-2.64,19.16Z"/><path class="cls-2" d="M951.76,333.56c-1.98,10.57-8.92,17.18-15.53,17.18-9.91,0-4.29-14.87-15.2-14.87-10.24,0-26.43,35.68-32.7,68.05l-15.2,80.6c-.66,2.97-3.3,5.29-6.61,5.29h-11.89c-2.97,0-5.29-2.64-4.62-5.62l20.48-108.02,3.3-15.53c3.3-17.51,2.64-25.77-3.3-25.77-7.27,0-12.22,15.2-15.2,28.74-.33,1.32-1.32,2.64-2.64,2.64-1.65.33-2.97-.99-2.64-2.31,4.29-25.11,10.57-50.87,35.35-50.87,8.59,0,15.86,8.59,14.2,31.38,0,2.31,2.64,2.97,3.63.99,10.24-21.14,25.44-32.37,36.01-32.37,9.25,0,15.2,6.61,12.55,20.48Z"/><line class="cls-1" x1="38.61" y1="427.88" x2="240.42" y2="427.88"/><path class="cls-2" d="M319.84,427.88c-37.37,13.87-83.74,37.53-112.48,62.59l22.64-62.59-22.64-62.57c28.74,25.06,75.11,48.72,112.48,62.57Z"/></svg>