<?xml version="1.0" encoding="UTF-8"?><svg id="Layer_1" xmlns="http://www.w3.org/2000/svg" viewBox="0 0 1702.46 305.63"><defs><style>.cls-1{fill:#171cb7;}</style></defs><path class="cls-1" d="M78.53,45.76c0,6.81-1.35,12.56-4.05,17.24-2.7,4.69-6.52,8.09-11.47,10.21l8.89,40.06h-29.32l-5.04-34.22h-3.45l-5.97,34.22H1.59L17.91,19.37h32.5c9.11,0,16.07,2.21,20.89,6.63,4.82,4.42,7.23,11.01,7.23,19.77ZM50.54,49.35c0-2.74-.73-4.55-2.19-5.44-1.46-.88-2.85-1.33-4.18-1.33h-3.71l-3.05,17.38h2.92c2.65,0,5.02-.8,7.1-2.39,2.08-1.59,3.12-4.33,3.12-8.22Z"/><path class="cls-1" d="M138.75,43.77h-22.15l-1.99,10.61h20.43l-3.85,22.68h-20.43l-1.99,11.41h24.67l-4.24,24.81h-51.2l16.32-93.92h48.68l-4.25,24.41Z"/><path class="cls-1" d="M222.59,53.72c0,3.1-.24,6.28-.73,9.55-.49,3.27-1.24,6.46-2.26,9.55-1.02,3.1-2.3,6.04-3.85,8.82-1.55,2.79-3.34,5.2-5.37,7.23v.53l12.73-.93-4.38,24.81h-43.11c-10.61,0-18.79-2.94-24.54-8.82-5.75-5.88-8.62-14.44-8.62-25.67,0-7.87,1.06-15.52,3.18-22.95,2.12-7.43,5.17-14.04,9.15-19.83,3.98-5.79,8.87-10.46,14.66-14,5.79-3.54,12.36-5.31,19.7-5.31,5.57,0,10.43.88,14.59,2.65,4.16,1.77,7.63,4.27,10.41,7.5,2.79,3.23,4.89,7.12,6.3,11.67,1.41,4.56,2.12,9.62,2.12,15.19ZM193.94,56.64c0-3.89-.62-6.96-1.86-9.22-1.24-2.26-3.18-3.38-5.84-3.38-2.48,0-4.69,1.04-6.63,3.12-1.95,2.08-3.58,4.69-4.91,7.83-1.33,3.14-2.32,6.55-2.98,10.21-.66,3.67-1,7.05-1,10.15,0,3.98.62,7.12,1.86,9.42,1.24,2.3,3.18,3.45,5.84,3.45,2.48,0,4.66-1.06,6.57-3.18,1.9-2.12,3.52-4.75,4.84-7.89,1.33-3.14,2.34-6.54,3.05-10.21.71-3.67,1.06-7.1,1.06-10.28Z"/><path class="cls-1" d="M298.2,76.67c-.97,5.57-2.28,10.74-3.91,15.52-1.64,4.78-3.91,8.91-6.83,12.4-2.92,3.49-6.61,6.26-11.08,8.29-4.47,2.03-9.93,3.05-16.38,3.05-5.22,0-9.8-.71-13.73-2.12-3.94-1.41-7.23-3.38-9.88-5.9-2.65-2.52-4.67-5.53-6.04-9.02-1.37-3.49-2.06-7.32-2.06-11.47,0-1.77.09-3.56.27-5.37.18-1.81.44-3.65.8-5.51l9.95-57.17h27.99l-9.55,55.18c-.27,1.5-.49,2.9-.66,4.18-.18,1.28-.27,2.45-.27,3.52,0,2.12.42,3.8,1.26,5.04.84,1.24,2.14,1.86,3.91,1.86,3.01,0,5.06-1.3,6.17-3.91,1.1-2.61,2.06-6.17,2.85-10.68l9.55-55.18h27.72l-10.08,57.31Z"/><path class="cls-1" d="M364.53,43.77h-22.15l-1.99,10.61h20.43l-3.85,22.68h-20.43l-1.99,11.41h24.67l-4.24,24.81h-51.2l16.32-93.92h48.68l-4.25,24.41Z"/><path class="cls-1" d="M419.31,47.22c-1.42-1.41-3.18-2.61-5.31-3.58-2.12-.97-4.2-1.46-6.23-1.46-.8,0-1.61.09-2.45.27-.84.18-1.61.51-2.32.99-.71.49-1.28,1.11-1.72,1.86-.44.75-.66,1.7-.66,2.85,0,1.59.57,2.87,1.72,3.85,1.15.97,3.14,2.3,5.97,3.98,1.59.88,3.34,2.04,5.24,3.45,1.9,1.42,3.71,3.14,5.44,5.17,1.72,2.04,3.16,4.47,4.31,7.3,1.15,2.83,1.72,6.1,1.72,9.82,0,5.93-1.06,11.01-3.18,15.26s-4.89,7.74-8.29,10.48c-3.41,2.74-7.25,4.75-11.54,6.04-4.29,1.28-8.56,1.92-12.8,1.92-6.46,0-12.32-.93-17.58-2.79-5.26-1.86-9.4-4.16-12.4-6.9l15.92-21.09c1.77,1.5,3.87,2.77,6.3,3.78,2.43,1.02,4.89,1.53,7.36,1.53,1.77,0,3.38-.46,4.84-1.39,1.46-.93,2.19-2.41,2.19-4.44,0-1.5-.58-2.9-1.72-4.18-1.15-1.28-3.27-2.81-6.37-4.58-2.04-1.15-4.02-2.45-5.97-3.91-1.95-1.46-3.67-3.14-5.17-5.04-1.5-1.9-2.7-4.13-3.58-6.7-.89-2.56-1.33-5.53-1.33-8.89,0-4.51.82-8.8,2.45-12.87,1.64-4.07,4-7.63,7.1-10.68,3.09-3.05,6.85-5.48,11.28-7.3,4.42-1.81,9.42-2.72,14.99-2.72,6.19,0,11.72.91,16.58,2.72,4.86,1.81,8.58,4.09,11.14,6.83l-15.92,20.43Z"/><path class="cls-1" d="M494.39,42.98h-16.71l-12.2,70.31h-27.46l12.34-70.31h-16.71l4.11-23.61h60.76l-4.11,23.61Z"/><path class="cls-1" d="M558.86,100.28h-16.18l-2.52,13h-28.79l22.15-93.92h35.68l22.29,93.92h-30.11l-2.52-13ZM545.86,78h9.55l-4.38-30.51h-.53l-4.64,30.51Z"/><path class="cls-1" d="M622.8,68.98h-.4l1.06,44.31h-25.6V19.37h30.64l14.72,45.77h.53l-.8-45.77h24.67v93.92h-29.85l-14.99-44.31Z"/><path class="cls-1" d="M704.25,66.06c0-7.52.91-14.33,2.72-20.43,1.81-6.1,4.42-11.3,7.83-15.59,3.4-4.29,7.54-7.58,12.4-9.88,4.86-2.3,10.3-3.45,16.32-3.45s11.45,1.15,16.32,3.45c4.86,2.3,9,5.59,12.4,9.88,3.4,4.29,6.01,9.48,7.83,15.59,1.81,6.1,2.72,12.91,2.72,20.43s-.91,14.35-2.72,20.5c-1.81,6.15-4.42,11.39-7.83,15.72-3.41,4.33-7.54,7.69-12.4,10.08-4.86,2.39-10.3,3.58-16.32,3.58s-11.45-1.19-16.32-3.58c-4.86-2.39-9-5.75-12.4-10.08-3.41-4.33-6.01-9.57-7.83-15.72-1.81-6.15-2.72-12.98-2.72-20.5ZM733.43,66.06c0,6.1.82,11.17,2.45,15.19,1.64,4.02,4.18,6.04,7.63,6.04s5.99-2.01,7.63-6.04c1.64-4.02,2.45-9.09,2.45-15.19s-.82-11.12-2.45-15.06c-1.64-3.93-4.18-5.9-7.63-5.9s-5.99,1.97-7.63,5.9c-1.64,3.94-2.45,8.95-2.45,15.06Z"/><path class="cls-1" d="M822.85,79.59h-2.4v33.69h-27.59V19.37h34.96c5.4,0,10.12.71,14.15,2.12,4.03,1.42,7.33,3.45,9.9,6.1,2.57,2.65,4.5,5.86,5.78,9.62,1.29,3.76,1.93,7.98,1.93,12.67,0,3.18-.36,6.06-1.06,8.62-.71,2.57-1.6,4.84-2.66,6.83-1.07,1.99-2.26,3.65-3.59,4.97-1.33,1.33-2.66,2.3-3.99,2.92l15.03,40.06h-30.47l-9.98-33.69ZM820.45,43.38v16.45h2.39c.8,0,1.68-.11,2.65-.33.97-.22,1.86-.64,2.65-1.26.8-.62,1.46-1.46,1.99-2.52.53-1.06.8-2.43.8-4.11,0-1.77-.24-3.18-.73-4.24-.49-1.06-1.11-1.9-1.86-2.52-.75-.62-1.55-1.02-2.39-1.19-.84-.18-1.61-.27-2.32-.27h-3.18Z"/><path class="cls-1" d="M870.06,113.28V19.37h30.24c7.69,0,14.21,1.17,19.57,3.52,5.35,2.34,9.68,5.59,13,9.75,3.32,4.16,5.72,9.13,7.23,14.92,1.5,5.79,2.25,12.14,2.25,19.04s-.75,13.07-2.25,18.77c-1.5,5.7-3.91,10.61-7.23,14.72-3.32,4.11-7.65,7.34-13,9.68-5.35,2.34-11.87,3.52-19.57,3.52h-30.24ZM913.31,66.59c0-6.99-1.11-12.4-3.32-16.25-2.21-3.85-5.26-5.77-9.15-5.77h-1.72v43.51h1.72c3.89,0,6.94-1.92,9.15-5.77,2.21-3.85,3.32-9.09,3.32-15.72Z"/><path class="cls-1" d="M952.44,19.37h50.14v25.34h-22.68v9.42h20.56v23.48h-20.56v9.82h24.41v25.87h-51.87V19.37Z"/><path class="cls-1" d="M1044.38,79.59h-2.4v33.69h-27.59V19.37h34.96c5.4,0,10.12.71,14.15,2.12,4.03,1.42,7.33,3.45,9.9,6.1,2.57,2.65,4.5,5.86,5.78,9.62,1.29,3.76,1.93,7.98,1.93,12.67,0,3.18-.36,6.06-1.07,8.62-.71,2.57-1.6,4.84-2.66,6.83-1.07,1.99-2.26,3.65-3.59,4.97-1.33,1.33-2.66,2.3-3.99,2.92l15.03,40.06h-30.47l-9.98-33.69ZM1041.98,43.38v16.45h2.39c.8,0,1.68-.11,2.65-.33.97-.22,1.86-.64,2.65-1.26.8-.62,1.46-1.46,1.99-2.52.53-1.06.8-2.43.8-4.11,0-1.77-.25-3.18-.73-4.24-.49-1.06-1.11-1.9-1.86-2.52-.75-.62-1.55-1.02-2.39-1.19-.84-.18-1.61-.27-2.32-.27h-3.18Z"/><path class="cls-1" d="M433.38,214.5h20.43v24.67h-20.3v33.3h-28.65v-93.92h50.81v25.87h-22.29v10.08Z"/><path class="cls-1" d="M461.37,225.24c0-7.52.91-14.33,2.72-20.43,1.81-6.1,4.42-11.3,7.83-15.59,3.4-4.29,7.54-7.58,12.4-9.88,4.86-2.3,10.3-3.45,16.32-3.45s11.45,1.15,16.32,3.45c4.86,2.3,9,5.59,12.4,9.88,3.4,4.29,6.01,9.48,7.83,15.59,1.81,6.1,2.72,12.91,2.72,20.43s-.91,14.35-2.72,20.5c-1.81,6.15-4.42,11.39-7.83,15.72-3.41,4.33-7.54,7.69-12.4,10.08-4.86,2.39-10.3,3.58-16.32,3.58s-11.45-1.19-16.32-3.58c-4.86-2.39-9-5.75-12.4-10.08-3.41-4.33-6.01-9.57-7.83-15.72-1.81-6.15-2.72-12.98-2.72-20.5ZM490.55,225.24c0,6.1.82,11.17,2.45,15.19,1.64,4.03,4.18,6.04,7.63,6.04s5.99-2.01,7.63-6.04c1.64-4.02,2.45-9.09,2.45-15.19s-.82-11.12-2.45-15.06c-1.64-3.93-4.18-5.9-7.63-5.9s-5.99,1.97-7.63,5.9c-1.64,3.94-2.45,8.95-2.45,15.06Z"/><path class="cls-1" d="M579.97,238.77h-2.4v33.69h-27.59v-93.92h34.96c5.4,0,10.12.71,14.15,2.12,4.03,1.42,7.33,3.45,9.9,6.1,2.57,2.65,4.5,5.86,5.78,9.62,1.29,3.76,1.93,7.98,1.93,12.67,0,3.18-.36,6.06-1.06,8.62-.71,2.57-1.6,4.84-2.66,6.83-1.07,1.99-2.26,3.65-3.59,4.97-1.33,1.33-2.66,2.3-3.99,2.92l15.03,40.06h-30.47l-9.98-33.69ZM577.57,202.56v16.45h2.39c.8,0,1.68-.11,2.65-.33.97-.22,1.86-.64,2.65-1.26.8-.62,1.46-1.46,1.99-2.52.53-1.06.8-2.43.8-4.11,0-1.77-.24-3.18-.73-4.25-.49-1.06-1.11-1.9-1.86-2.52-.75-.62-1.55-1.02-2.39-1.19-.84-.18-1.61-.26-2.32-.26h-3.18Z"/><path class="cls-1" d="M691.39,259.47h-16.18l-2.52,13h-28.79l22.15-93.92h35.68l22.29,93.92h-30.11l-2.52-13ZM678.39,237.18h9.55l-4.38-30.51h-.53l-4.64,30.51Z"/><path class="cls-1" d="M820.99,218.88h-.53l-11.67,53.59h-18.31l-10.75-53.59h-.53l1.19,53.59h-25.87v-93.92h34.36l11.01,49.08h.53l10.88-49.08h36.48v93.92h-28.12l1.33-53.59Z"/><path class="cls-1" d="M857.87,225.24c0-7.52.91-14.33,2.72-20.43,1.81-6.1,4.42-11.3,7.83-15.59,3.4-4.29,7.54-7.58,12.4-9.88,4.86-2.3,10.3-3.45,16.32-3.45s11.45,1.15,16.32,3.45c4.86,2.3,9,5.59,12.4,9.88,3.4,4.29,6.01,9.48,7.83,15.59,1.81,6.1,2.72,12.91,2.72,20.43s-.91,14.35-2.72,20.5c-1.81,6.15-4.42,11.39-7.83,15.72-3.4,4.33-7.54,7.69-12.4,10.08-4.87,2.39-10.3,3.58-16.32,3.58s-11.46-1.19-16.32-3.58c-4.87-2.39-9-5.75-12.4-10.08-3.41-4.33-6.01-9.57-7.83-15.72-1.81-6.15-2.72-12.98-2.72-20.5ZM887.05,225.24c0,6.1.82,11.17,2.45,15.19,1.64,4.03,4.18,6.04,7.63,6.04s5.99-2.01,7.63-6.04c1.63-4.02,2.46-9.09,2.46-15.19s-.82-11.12-2.46-15.06c-1.64-3.93-4.18-5.9-7.63-5.9s-5.99,1.97-7.63,5.9c-1.64,3.94-2.45,8.95-2.45,15.06Z"/><path class="cls-1" d="M960.28,272.47l-22.29-93.92h32.9l8.49,59.3h.4l8.22-59.3h31.44l-22.82,93.92h-36.35Z"/><path class="cls-1" d="M1025.54,178.55h29.18v93.92h-29.18v-93.92Z"/><path class="cls-1" d="M1068.52,178.55h50.14v25.34h-22.68v9.42h20.56v23.48h-20.56v9.82h24.41v25.87h-51.87v-93.92Z"/><path class="cls-1" d="M1124.23,274.86l27.06-102.94,13.93,3.32-27.06,102.67-13.93-3.05Z"/><path class="cls-1" d="M1210.99,272.47h-28.39v-69.51h-16.58v-24.41h61.55v24.41h-16.58v69.51Z"/><path class="cls-1" d="M1249.06,272.47l-22.29-93.92h32.9l8.49,59.3h.4l8.22-59.3h31.44l-22.82,93.92h-36.35Z"/><path class="cls-1" d="M1360.09,274.86c-3.18,0-6.21-.29-9.09-.86-2.88-.58-5.53-1.35-7.96-2.32-2.43-.97-4.67-2.08-6.7-3.32-2.04-1.24-3.76-2.47-5.17-3.71l13.8-21.89c2.03,1.68,4.27,3.05,6.7,4.11,2.43,1.06,4.84,1.59,7.23,1.59,1.5,0,2.76-.38,3.78-1.13,1.02-.75,1.53-1.83,1.53-3.25,0-1.68-.73-3.09-2.19-4.25-1.46-1.15-3.74-2.47-6.83-3.98-2.65-1.24-5.17-2.63-7.56-4.18-2.39-1.55-4.51-3.43-6.37-5.64-1.86-2.21-3.34-4.8-4.44-7.76-1.11-2.96-1.66-6.43-1.66-10.41,0-5.75,1.02-10.63,3.05-14.66,2.03-4.02,4.62-7.3,7.76-9.82,3.14-2.52,6.63-4.35,10.48-5.5,3.85-1.15,7.63-1.72,11.34-1.72,5.66,0,10.72.88,15.19,2.65,4.46,1.77,8.2,4.07,11.21,6.9l-14.19,21.62c-1.5-1.5-3.27-2.76-5.31-3.78-2.04-1.02-3.98-1.53-5.84-1.53-1.42,0-2.7.35-3.85,1.06-1.15.71-1.72,1.95-1.72,3.71,0,1.42.6,2.57,1.79,3.45,1.19.89,3.52,2.17,6.96,3.85,1.94.97,4.11,2.19,6.5,3.65s4.64,3.32,6.77,5.57c2.12,2.26,3.91,4.97,5.37,8.16,1.46,3.18,2.19,6.94,2.19,11.28,0,5.66-.93,10.53-2.79,14.59-1.86,4.07-4.33,7.38-7.43,9.95-3.1,2.57-6.61,4.47-10.55,5.7-3.94,1.24-7.94,1.86-12,1.86Z"/><path class="cls-1" d="M1401.88,178.55h50.14v25.34h-22.68v9.42h20.56v23.48h-20.56v9.82h24.41v25.87h-51.87v-93.92Z"/><path class="cls-1" d="M1493.81,238.77h-2.4v33.69h-27.59v-93.92h34.96c5.4,0,10.12.71,14.15,2.12,4.03,1.42,7.33,3.45,9.9,6.1s4.5,5.86,5.78,9.62c1.29,3.76,1.93,7.98,1.93,12.67,0,3.18-.36,6.06-1.07,8.62-.71,2.57-1.6,4.84-2.66,6.83-1.07,1.99-2.26,3.65-3.59,4.97-1.33,1.33-2.66,2.3-3.99,2.92l15.03,40.06h-30.47l-9.98-33.69ZM1491.42,202.56v16.45h2.39c.8,0,1.68-.11,2.65-.33.97-.22,1.86-.64,2.65-1.26.8-.62,1.46-1.46,1.99-2.52.53-1.06.8-2.43.8-4.11,0-1.77-.25-3.18-.73-4.25-.49-1.06-1.11-1.9-1.86-2.52-.75-.62-1.55-1.02-2.39-1.19-.84-.18-1.61-.26-2.32-.26h-3.18Z"/><path class="cls-1" d="M1541.03,178.55h29.18v93.92h-29.18v-93.92Z"/><path class="cls-1" d="M1584,178.55h50.14v25.34h-22.68v9.42h20.56v23.48h-20.56v9.82h24.41v25.87h-51.87v-93.92Z"/><path class="cls-1" d="M1667.57,274.86c-3.18,0-6.21-.29-9.09-.86-2.88-.58-5.53-1.35-7.96-2.32-2.43-.97-4.67-2.08-6.7-3.32-2.04-1.24-3.76-2.47-5.17-3.71l13.8-21.89c2.03,1.68,4.27,3.05,6.7,4.11,2.43,1.06,4.84,1.59,7.23,1.59,1.5,0,2.76-.38,3.78-1.13,1.02-.75,1.53-1.83,1.53-3.25,0-1.68-.73-3.09-2.19-4.25-1.46-1.15-3.74-2.47-6.83-3.98-2.65-1.24-5.17-2.63-7.56-4.18-2.39-1.55-4.51-3.43-6.37-5.64-1.86-2.21-3.34-4.8-4.44-7.76-1.11-2.96-1.66-6.43-1.66-10.41,0-5.75,1.02-10.63,3.05-14.66,2.03-4.02,4.62-7.3,7.76-9.82,3.14-2.52,6.63-4.35,10.48-5.5,3.85-1.15,7.63-1.72,11.34-1.72,5.66,0,10.72.88,15.19,2.65,4.46,1.77,8.2,4.07,11.21,6.9l-14.19,21.62c-1.5-1.5-3.27-2.76-5.31-3.78-2.04-1.02-3.98-1.53-5.84-1.53-1.42,0-2.7.35-3.85,1.06-1.15.71-1.72,1.95-1.72,3.71,0,1.42.6,2.57,1.79,3.45,1.19.89,3.52,2.17,6.96,3.85,1.94.97,4.11,2.19,6.5,3.65s4.64,3.32,6.77,5.57c2.12,2.26,3.91,4.97,5.37,8.16,1.46,3.18,2.19,6.94,2.19,11.28,0,5.66-.93,10.53-2.79,14.59-1.86,4.07-4.33,7.38-7.43,9.95-3.1,2.57-6.61,4.47-10.55,5.7-3.94,1.24-7.94,1.86-12,1.86Z"/></svg>