<?xml version="1.0" encoding="UTF-8" standalone="no"?>
<svg
   id="Layer_1"
   viewBox="0 0 1629.79 329.26"
   version="1.1"
   sodipodi:docname="Untitled-2.svg"
   inkscape:version="1.3.2 (091e20e, 2023-11-25, custom)"
   xmlns:inkscape="http://www.inkscape.org/namespaces/inkscape"
   xmlns:sodipodi="http://sodipodi.sourceforge.net/DTD/sodipodi-0.dtd"
   xmlns="http://www.w3.org/2000/svg"
   xmlns:svg="http://www.w3.org/2000/svg">
  <sodipodi:namedview
     id="namedview36"
     pagecolor="#ffffff"
     bordercolor="#000000"
     borderopacity="0.25"
     inkscape:showpageshadow="2"
     inkscape:pageopacity="0.0"
     inkscape:pagecheckerboard="0"
     inkscape:deskcolor="#d1d1d1"
     inkscape:zoom="0.82648683"
     inkscape:cx="814.89502"
     inkscape:cy="165.1569"
     inkscape:window-width="1920"
     inkscape:window-height="1017"
     inkscape:window-x="-8"
     inkscape:window-y="-8"
     inkscape:window-maximized="1"
     inkscape:current-layer="Layer_1" />
  <defs
     id="defs3">
    <style
       id="style1">.cls-1{fill:none;}.cls-2{clip-path:url(#clippath-1);}.cls-3{clip-path:url(#clippath-2);}.cls-4{fill:#171cb7;}.cls-5{clip-path:url(#clippath);}</style>
    <clipPath
       id="clippath">
      <rect
         class="cls-1"
         x="1077.6"
         y="21.32"
         width="268.84"
         height="94.99"
         id="rect1" />
    </clipPath>
    <clipPath
       id="clippath-1">
      <rect
         class="cls-1"
         x="1077.6"
         width="268.84"
         height="151.36"
         id="rect2" />
    </clipPath>
    <clipPath
       id="clippath-2">
      <rect
         class="cls-1"
         x="74.13"
         y="173.72"
         width="276.85"
         height="97.65"
         id="rect3" />
    </clipPath>
  </defs>
  <path
     class="cls-4"
     d="M75.18,54.33c0,6.52-1.29,12.02-3.87,16.51-2.58,4.49-6.24,7.75-10.98,9.78l8.51,38.35h-28.06l-4.83-32.76h-3.3l-5.71,32.76H1.52L17.14,29.06h31.11c8.72,0,15.39,2.12,20,6.35,4.61,4.23,6.92,10.54,6.92,18.92ZM48.38,57.76c0-2.62-.7-4.36-2.1-5.21-1.4-.85-2.73-1.27-4-1.27h-3.56l-2.92,16.64h2.79c2.54,0,4.8-.76,6.79-2.29,1.99-1.52,2.98-4.15,2.98-7.87Z"
     id="path3" />
  <path
     class="cls-4"
     d="M132.83,52.43h-21.21l-1.91,10.16h19.56l-3.68,21.72h-19.56l-1.9,10.92h23.62l-4.06,23.75h-49.02l15.62-89.91h46.61l-4.06,23.37Z"
     id="path4" />
  <path
     class="cls-4"
     d="M213.09,61.95c0,2.96-.23,6.01-.7,9.14-.47,3.13-1.19,6.18-2.16,9.14-.97,2.96-2.2,5.78-3.68,8.44-1.48,2.67-3.2,4.97-5.14,6.92v.51l12.19-.89-4.19,23.75h-41.27c-10.16,0-17.99-2.81-23.49-8.44-5.5-5.63-8.25-13.82-8.25-24.57,0-7.53,1.02-14.86,3.05-21.97,2.03-7.11,4.95-13.44,8.76-18.98,3.81-5.54,8.49-10.01,14.03-13.4,5.54-3.38,11.83-5.08,18.86-5.08,5.33,0,9.99.85,13.97,2.54,3.98,1.69,7.3,4.09,9.97,7.17,2.67,3.09,4.68,6.82,6.03,11.18,1.35,4.36,2.03,9.21,2.03,14.54ZM185.66,64.75c0-3.72-.59-6.67-1.78-8.83-1.19-2.16-3.05-3.24-5.59-3.24-2.37,0-4.49,1-6.35,2.98-1.86,1.99-3.43,4.49-4.7,7.49-1.27,3.01-2.22,6.27-2.86,9.78-.63,3.51-.95,6.75-.95,9.71,0,3.81.59,6.82,1.78,9.02,1.18,2.2,3.05,3.3,5.59,3.3,2.37,0,4.46-1.02,6.29-3.05,1.82-2.03,3.37-4.55,4.64-7.56,1.27-3,2.24-6.26,2.92-9.78.68-3.51,1.02-6.79,1.02-9.84Z"
     id="path5" />
  <path
     class="cls-4"
     d="M285.47,83.92c-.93,5.33-2.18,10.29-3.75,14.86-1.57,4.57-3.75,8.53-6.54,11.87-2.79,3.35-6.33,5.99-10.6,7.94-4.28,1.95-9.5,2.92-15.68,2.92-5,0-9.38-.68-13.14-2.03-3.77-1.35-6.92-3.24-9.46-5.65-2.54-2.41-4.47-5.29-5.78-8.64-1.31-3.34-1.97-7-1.97-10.98,0-1.69.08-3.41.25-5.14.17-1.73.42-3.49.76-5.27l9.52-54.73h26.79l-9.14,52.83c-.25,1.44-.47,2.77-.63,4-.17,1.23-.25,2.35-.25,3.37,0,2.03.4,3.64,1.21,4.83.8,1.19,2.05,1.78,3.75,1.78,2.88,0,4.85-1.25,5.9-3.75,1.06-2.5,1.97-5.91,2.73-10.22l9.14-52.83h26.54l-9.65,54.86Z"
     id="path6" />
  <path
     class="cls-4"
     d="M348.97,52.43h-21.21l-1.91,10.16h19.56l-3.68,21.72h-19.56l-1.9,10.92h23.62l-4.06,23.75h-49.02l15.62-89.91h46.61l-4.06,23.37Z"
     id="path7" />
  <path
     class="cls-4"
     d="M401.41,55.73c-1.36-1.35-3.05-2.5-5.08-3.43-2.03-.93-4.02-1.4-5.97-1.4-.76,0-1.55.09-2.35.25-.81.17-1.55.49-2.22.95-.68.47-1.23,1.06-1.65,1.78-.42.72-.63,1.63-.63,2.73,0,1.52.55,2.75,1.65,3.68,1.1.93,3,2.2,5.71,3.81,1.52.85,3.19,1.95,5.02,3.3,1.82,1.36,3.56,3.01,5.21,4.95,1.65,1.95,3.03,4.28,4.13,6.98,1.1,2.71,1.65,5.84,1.65,9.4,0,5.67-1.02,10.54-3.05,14.6-2.03,4.06-4.68,7.41-7.94,10.03-3.26,2.62-6.94,4.55-11.05,5.78-4.11,1.23-8.19,1.84-12.25,1.84-6.18,0-11.79-.89-16.83-2.67-5.04-1.78-8.99-3.98-11.87-6.6l15.24-20.19c1.69,1.44,3.7,2.65,6.03,3.62,2.33.97,4.68,1.46,7.05,1.46,1.69,0,3.24-.44,4.64-1.33,1.4-.89,2.1-2.31,2.1-4.25,0-1.44-.55-2.77-1.65-4-1.1-1.23-3.13-2.69-6.1-4.38-1.95-1.1-3.85-2.35-5.71-3.75-1.86-1.4-3.51-3-4.95-4.83-1.44-1.82-2.58-3.96-3.43-6.41-.85-2.45-1.27-5.29-1.27-8.51,0-4.32.78-8.42,2.35-12.32,1.57-3.89,3.83-7.3,6.79-10.22,2.96-2.92,6.56-5.25,10.79-6.98,4.23-1.73,9.02-2.6,14.35-2.6,5.92,0,11.22.87,15.87,2.6,4.65,1.74,8.21,3.92,10.67,6.54l-15.24,19.56Z"
     id="path8" />
  <path
     class="cls-4"
     d="M473.29,51.67h-16l-11.68,67.31h-26.29l11.81-67.31h-16l3.94-22.6h58.16l-3.94,22.6Z"
     id="path9" />
  <path
     class="cls-4"
     d="M535.01,106.53h-15.49l-2.41,12.45h-27.56l21.21-89.91h34.16l21.33,89.91h-28.83l-2.41-12.45ZM522.56,85.19h9.14l-4.19-29.21h-.51l-4.44,29.21Z"
     id="path10" />
  <path
     class="cls-4"
     d="M596.22,76.56h-.38l1.02,42.42h-24.51V29.06h29.33l14.1,43.81h.51l-.76-43.81h23.62v89.91h-28.57l-14.35-42.42Z"
     id="path11" />
  <path
     class="cls-4"
     d="M674.19,73.76c0-7.19.87-13.71,2.6-19.56,1.73-5.84,4.23-10.81,7.49-14.92,3.26-4.11,7.22-7.26,11.87-9.46,4.66-2.2,9.86-3.3,15.62-3.3s10.96,1.1,15.62,3.3c4.65,2.2,8.61,5.36,11.87,9.46,3.26,4.11,5.76,9.08,7.49,14.92,1.73,5.84,2.6,12.36,2.6,19.56s-.87,13.74-2.6,19.62c-1.74,5.89-4.23,10.9-7.49,15.05-3.26,4.15-7.22,7.37-11.87,9.65-4.66,2.29-9.86,3.43-15.62,3.43s-10.96-1.14-15.62-3.43c-4.66-2.29-8.62-5.5-11.87-9.65-3.26-4.15-5.76-9.16-7.49-15.05-1.74-5.88-2.6-12.42-2.6-19.62ZM702.13,73.76c0,5.84.78,10.69,2.35,14.54,1.57,3.85,4,5.78,7.3,5.78s5.73-1.92,7.3-5.78c1.57-3.85,2.35-8.7,2.35-14.54s-.78-10.65-2.35-14.41c-1.57-3.77-4-5.65-7.3-5.65s-5.74,1.88-7.3,5.65c-1.57,3.77-2.35,8.57-2.35,14.41Z"
     id="path12" />
  <path
     class="cls-4"
     d="M787.73,86.72h-2.29v32.26h-26.41V29.06h33.47c5.17,0,9.69.68,13.55,2.03,3.86,1.36,7.02,3.3,9.48,5.84,2.46,2.54,4.31,5.61,5.54,9.21,1.23,3.6,1.85,7.64,1.85,12.13,0,3.05-.34,5.8-1.02,8.25-.68,2.46-1.53,4.64-2.55,6.54-1.02,1.9-2.17,3.49-3.44,4.76s-2.55,2.2-3.82,2.79l14.39,38.35h-29.17l-9.56-32.26ZM785.43,52.05v15.75h2.29c.76,0,1.61-.11,2.54-.32.93-.21,1.78-.61,2.54-1.21.76-.59,1.4-1.4,1.9-2.41.51-1.02.76-2.33.76-3.94,0-1.69-.23-3.05-.7-4.06-.47-1.02-1.06-1.82-1.78-2.41-.72-.59-1.48-.97-2.29-1.14-.81-.17-1.55-.25-2.22-.25h-3.05Z"
     id="path13" />
  <path
     class="cls-4"
     d="M832.92,118.97V29.06h28.95c7.37,0,13.61,1.12,18.73,3.37,5.12,2.24,9.27,5.36,12.45,9.33,3.17,3.98,5.48,8.74,6.92,14.29,1.44,5.55,2.16,11.62,2.16,18.22s-.72,12.51-2.16,17.97c-1.44,5.46-3.75,10.16-6.92,14.1-3.17,3.94-7.32,7.03-12.45,9.27-5.12,2.24-11.37,3.37-18.73,3.37h-28.95ZM874.32,74.27c0-6.69-1.06-11.87-3.18-15.56-2.12-3.68-5.04-5.52-8.76-5.52h-1.65v41.65h1.65c3.72,0,6.64-1.84,8.76-5.52,2.12-3.68,3.18-8.7,3.18-15.05Z"
     id="path14" />
  <path
     class="cls-4"
     d="M911.78,29.06h48v24.26h-21.72v9.02h19.68v22.48h-19.68v9.4h23.37v24.76h-49.65V29.06Z"
     id="path15" />
  <path
     class="cls-4"
     d="M999.8,86.72h-2.29v32.26h-26.41V29.06h33.47c5.17,0,9.69.68,13.55,2.03,3.86,1.36,7.02,3.3,9.48,5.84,2.46,2.54,4.31,5.61,5.54,9.21,1.23,3.6,1.85,7.64,1.85,12.13,0,3.05-.34,5.8-1.02,8.25-.68,2.46-1.53,4.64-2.55,6.54-1.02,1.9-2.17,3.49-3.44,4.76-1.27,1.27-2.55,2.2-3.82,2.79l14.39,38.35h-29.17l-9.56-32.26ZM997.5,52.05v15.75h2.29c.76,0,1.61-.11,2.54-.32.93-.21,1.78-.61,2.54-1.21.76-.59,1.4-1.4,1.91-2.41.51-1.02.76-2.33.76-3.94,0-1.69-.23-3.05-.7-4.06-.47-1.02-1.06-1.82-1.78-2.41-.72-.59-1.48-.97-2.29-1.14-.81-.17-1.55-.25-2.22-.25h-3.05Z"
     id="path16" />
  <path
     class="cls-4"
     d="M414.88,215.87h19.56v23.62h-19.43v31.88h-27.43v-89.91h48.64v24.76h-21.33v9.65Z"
     id="path17" />
  <path
     class="cls-4"
     d="M441.67,226.15c0-7.19.87-13.71,2.6-19.56,1.73-5.84,4.23-10.81,7.49-14.92,3.26-4.11,7.22-7.26,11.87-9.46,4.66-2.2,9.86-3.3,15.62-3.3s10.96,1.1,15.62,3.3c4.65,2.2,8.61,5.36,11.87,9.46,3.26,4.11,5.76,9.08,7.49,14.92,1.73,5.84,2.6,12.36,2.6,19.56s-.87,13.74-2.6,19.62c-1.74,5.89-4.23,10.9-7.49,15.05-3.26,4.15-7.22,7.37-11.87,9.65-4.66,2.29-9.86,3.43-15.62,3.43s-10.96-1.14-15.62-3.43c-4.66-2.29-8.62-5.5-11.87-9.65-3.26-4.15-5.76-9.16-7.49-15.05-1.74-5.88-2.6-12.42-2.6-19.62ZM469.61,226.15c0,5.84.78,10.69,2.35,14.54,1.57,3.85,4,5.78,7.3,5.78s5.73-1.92,7.3-5.78c1.57-3.85,2.35-8.7,2.35-14.54s-.78-10.65-2.35-14.41c-1.57-3.77-4-5.65-7.3-5.65s-5.74,1.88-7.3,5.65c-1.57,3.77-2.35,8.57-2.35,14.41Z"
     id="path18" />
  <path
     class="cls-4"
     d="M555.21,239.11h-2.29v32.26h-26.41v-89.91h33.47c5.17,0,9.69.68,13.55,2.03,3.86,1.36,7.02,3.3,9.48,5.84s4.31,5.61,5.54,9.21c1.23,3.6,1.85,7.64,1.85,12.13,0,3.05-.34,5.8-1.02,8.25-.68,2.46-1.53,4.63-2.55,6.54-1.02,1.9-2.17,3.49-3.44,4.76-1.27,1.27-2.55,2.2-3.82,2.79l14.39,38.35h-29.17l-9.56-32.26ZM552.92,204.44v15.75h2.29c.76,0,1.61-.1,2.54-.32.93-.21,1.78-.61,2.54-1.21.76-.59,1.4-1.4,1.9-2.41s.76-2.33.76-3.94c0-1.69-.23-3.05-.7-4.06-.47-1.02-1.06-1.82-1.78-2.41-.72-.59-1.48-.97-2.29-1.14-.81-.17-1.55-.25-2.22-.25h-3.05Z"
     id="path19" />
  <path
     class="cls-4"
     d="M661.88,258.92h-15.49l-2.41,12.45h-27.56l21.21-89.91h34.16l21.33,89.91h-28.83l-2.41-12.45ZM649.43,237.58h9.14l-4.19-29.21h-.51l-4.44,29.21Z"
     id="path20" />
  <path
     class="cls-4"
     d="M785.95,220.06h-.51l-11.18,51.3h-17.52l-10.29-51.3h-.51l1.14,51.3h-24.76v-89.91h32.89l10.54,46.99h.51l10.41-46.99h34.92v89.91h-26.92l1.27-51.3Z"
     id="path21" />
  <path
     class="cls-4"
     d="M821.25,226.15c0-7.19.87-13.71,2.6-19.56,1.73-5.84,4.23-10.81,7.49-14.92,3.26-4.11,7.22-7.26,11.87-9.46,4.65-2.2,9.86-3.3,15.62-3.3s10.96,1.1,15.62,3.3c4.66,2.2,8.61,5.36,11.87,9.46,3.26,4.11,5.76,9.08,7.49,14.92,1.73,5.84,2.6,12.36,2.6,19.56s-.87,13.74-2.6,19.62c-1.74,5.89-4.23,10.9-7.49,15.05-3.26,4.15-7.22,7.37-11.87,9.65-4.66,2.29-9.86,3.43-15.62,3.43s-10.96-1.14-15.62-3.43c-4.66-2.29-8.62-5.5-11.87-9.65-3.26-4.15-5.76-9.16-7.49-15.05-1.74-5.88-2.6-12.42-2.6-19.62ZM849.19,226.15c0,5.84.78,10.69,2.35,14.54,1.57,3.85,4,5.78,7.3,5.78s5.74-1.92,7.3-5.78c1.57-3.85,2.35-8.7,2.35-14.54s-.78-10.65-2.35-14.41c-1.57-3.77-4-5.65-7.3-5.65s-5.74,1.88-7.3,5.65c-1.57,3.77-2.35,8.57-2.35,14.41Z"
     id="path22" />
  <path
     class="cls-4"
     d="M919.29,271.36l-21.33-89.91h31.49l8.13,56.77h.38l7.87-56.77h30.1l-21.84,89.91h-34.8Z"
     id="path23" />
  <path
     class="cls-4"
     d="M981.77,181.45h27.94v89.91h-27.94v-89.91Z"
     id="path24" />
  <path
     class="cls-4"
     d="M1022.91,181.45h48v24.26h-21.72v9.02h19.68v22.48h-19.68v9.4h23.37v24.76h-49.65v-89.91Z"
     id="path25" />
  <path
     class="cls-4"
     d="M1076.25,273.65l25.91-98.55,13.33,3.17-25.91,98.29-13.33-2.92Z"
     id="path26" />
  <path
     class="cls-4"
     d="M1159.3,271.36h-27.18v-66.54h-15.87v-23.37h58.92v23.37h-15.87v66.54Z"
     id="path27" />
  <path
     class="cls-4"
     d="M1195.74,271.36l-21.33-89.91h31.49l8.13,56.77h.38l7.87-56.77h30.1l-21.84,89.91h-34.8Z"
     id="path28" />
  <path
     class="cls-4"
     d="M1302.03,273.65c-3.05,0-5.95-.28-8.7-.83-2.75-.55-5.29-1.29-7.62-2.22-2.33-.93-4.47-1.99-6.41-3.17-1.95-1.18-3.6-2.37-4.95-3.56l13.21-20.95c1.95,1.61,4.08,2.92,6.41,3.94,2.33,1.02,4.63,1.52,6.92,1.52,1.44,0,2.65-.36,3.62-1.08.97-.72,1.46-1.76,1.46-3.11,0-1.61-.7-2.96-2.1-4.06-1.4-1.1-3.58-2.37-6.54-3.81-2.54-1.18-4.95-2.52-7.24-4-2.29-1.48-4.32-3.28-6.1-5.4-1.78-2.12-3.2-4.59-4.25-7.43-1.06-2.83-1.59-6.16-1.59-9.97,0-5.5.97-10.18,2.92-14.03,1.95-3.85,4.42-6.98,7.43-9.4,3-2.41,6.35-4.17,10.03-5.27,3.68-1.1,7.3-1.65,10.86-1.65,5.42,0,10.26.85,14.54,2.54,4.27,1.7,7.85,3.9,10.73,6.6l-13.59,20.7c-1.44-1.44-3.13-2.65-5.08-3.62-1.95-.97-3.81-1.46-5.59-1.46-1.36,0-2.58.34-3.68,1.02-1.1.68-1.65,1.86-1.65,3.56,0,1.35.57,2.46,1.71,3.3,1.14.85,3.37,2.08,6.67,3.68,1.86.93,3.94,2.09,6.22,3.49,2.29,1.4,4.44,3.17,6.48,5.33,2.03,2.16,3.75,4.76,5.14,7.81,1.4,3.05,2.1,6.65,2.1,10.79,0,5.42-.89,10.08-2.67,13.97-1.78,3.89-4.15,7.07-7.11,9.52-2.96,2.46-6.33,4.28-10.1,5.46-3.77,1.18-7.6,1.78-11.49,1.78Z"
     id="path29" />
  <path
     class="cls-4"
     d="M1342.04,181.45h48v24.26h-21.72v9.02h19.68v22.48h-19.68v9.4h23.37v24.76h-49.65v-89.91Z"
     id="path30" />
  <path
     class="cls-4"
     d="M1430.05,239.11h-2.29v32.26h-26.41v-89.91h33.47c5.17,0,9.69.68,13.55,2.03,3.86,1.36,7.02,3.3,9.48,5.84,2.46,2.54,4.31,5.61,5.54,9.21,1.23,3.6,1.85,7.64,1.85,12.13,0,3.05-.34,5.8-1.02,8.25-.68,2.46-1.53,4.63-2.55,6.54-1.02,1.9-2.17,3.49-3.44,4.76-1.27,1.27-2.55,2.2-3.82,2.79l14.39,38.35h-29.17l-9.56-32.26ZM1427.75,204.44v15.75h2.29c.76,0,1.61-.1,2.54-.32.93-.21,1.78-.61,2.54-1.21.76-.59,1.4-1.4,1.91-2.41s.76-2.33.76-3.94c0-1.69-.23-3.05-.7-4.06-.47-1.02-1.06-1.82-1.78-2.41-.72-.59-1.48-.97-2.29-1.14-.81-.17-1.55-.25-2.22-.25h-3.05Z"
     id="path31" />
  <path
     class="cls-4"
     d="M1475.25,181.45h27.94v89.91h-27.94v-89.91Z"
     id="path32" />
  <path
     class="cls-4"
     d="M1516.39,181.45h48v24.26h-21.72v9.02h19.68v22.48h-19.68v9.4h23.37v24.76h-49.65v-89.91Z"
     id="path33" />
  <path
     class="cls-4"
     d="M1596.39,273.65c-3.05,0-5.95-.28-8.7-.83-2.75-.55-5.29-1.29-7.62-2.22-2.33-.93-4.47-1.99-6.41-3.17-1.95-1.18-3.6-2.37-4.95-3.56l13.21-20.95c1.95,1.61,4.08,2.92,6.41,3.94,2.33,1.02,4.63,1.52,6.92,1.52,1.44,0,2.65-.36,3.62-1.08.97-.72,1.46-1.76,1.46-3.11,0-1.61-.7-2.96-2.1-4.06-1.4-1.1-3.58-2.37-6.54-3.81-2.54-1.18-4.95-2.52-7.24-4-2.29-1.48-4.32-3.28-6.1-5.4-1.78-2.12-3.2-4.59-4.25-7.43-1.06-2.83-1.59-6.16-1.59-9.97,0-5.5.97-10.18,2.92-14.03,1.95-3.85,4.42-6.98,7.43-9.4,3-2.41,6.35-4.17,10.03-5.27,3.68-1.1,7.3-1.65,10.86-1.65,5.42,0,10.26.85,14.54,2.54,4.27,1.7,7.85,3.9,10.73,6.6l-13.59,20.7c-1.44-1.44-3.13-2.65-5.08-3.62-1.95-.97-3.81-1.46-5.59-1.46-1.36,0-2.58.34-3.68,1.02-1.1.68-1.65,1.86-1.65,3.56,0,1.35.57,2.46,1.71,3.3,1.14.85,3.37,2.08,6.67,3.68,1.86.93,3.94,2.09,6.22,3.49,2.29,1.4,4.44,3.17,6.48,5.33,2.03,2.16,3.75,4.76,5.14,7.81,1.4,3.05,2.1,6.65,2.1,10.79,0,5.42-.89,10.08-2.67,13.97-1.78,3.89-4.15,7.07-7.11,9.52-2.96,2.46-6.33,4.28-10.1,5.46-3.77,1.18-7.6,1.78-11.49,1.78Z"
     id="path34" />
</svg>
