<?xml version="1.0" encoding="UTF-8"?><svg id="Layer_1" xmlns="http://www.w3.org/2000/svg" viewBox="0 0 1097.81 198.65"><defs><style>.cls-1{fill:none;stroke:#151db5;stroke-miterlimit:10;stroke-width:7.52px;}.cls-2{fill:#151db5;}</style></defs><line class="cls-1" x1="538" y1="112.66" x2="686.6" y2="112.66"/><path class="cls-2" d="M731.97,112.66c-21.35,7.92-47.84,21.44-64.25,35.75l12.93-35.75-12.93-35.74c16.42,14.32,42.91,27.83,64.25,35.74Z"/><path class="cls-2" d="M732.54,89.61c0-10.19,1.23-19.43,3.69-27.71,2.46-8.28,6-15.32,10.62-21.14,4.62-5.82,10.23-10.28,16.82-13.41,6.6-3.12,13.97-4.68,22.13-4.68s15.53,1.56,22.13,4.68c6.6,3.12,12.21,7.59,16.82,13.41,4.62,5.82,8.16,12.87,10.62,21.14,2.46,8.28,3.69,17.52,3.69,27.71s-1.23,19.46-3.69,27.8c-2.46,8.34-6,15.45-10.62,21.32-4.62,5.88-10.23,10.44-16.82,13.67-6.6,3.24-13.98,4.86-22.13,4.86s-15.54-1.62-22.13-4.86c-6.6-3.24-12.21-7.8-16.82-13.67-4.62-5.88-8.16-12.98-10.62-21.32-2.46-8.34-3.69-17.6-3.69-27.8ZM772.13,89.61c0,8.28,1.11,15.15,3.33,20.6,2.22,5.46,5.67,8.19,10.35,8.19s8.13-2.73,10.35-8.19c2.22-5.46,3.33-12.33,3.33-20.6s-1.11-15.08-3.33-20.42c-2.22-5.34-5.67-8.01-10.35-8.01s-8.13,2.67-10.35,8.01c-2.22,5.34-3.33,12.15-3.33,20.42Z"/><path class="cls-2" d="M896.82,157.26c-8.4,0-15.54-1.35-21.41-4.05-5.88-2.7-10.71-6.45-14.49-11.25-3.78-4.8-6.54-10.44-8.28-16.91-1.74-6.48-2.61-13.5-2.61-21.05V26.27h39.41v74.31c0,6.12.51,10.77,1.53,13.95,1.02,3.18,3.21,4.77,6.57,4.77s5.58-1.59,6.66-4.77c1.08-3.18,1.62-7.83,1.62-13.95V26.27h38.87v77.73c0,7.56-.93,14.58-2.79,21.05-1.86,6.48-4.74,12.12-8.64,16.91-3.9,4.8-8.85,8.55-14.85,11.25-6,2.7-13.2,4.05-21.59,4.05Z"/><path class="cls-2" d="M1012.34,153.67h-38.51V59.38h-22.49V26.27h83.49v33.11h-22.49v94.29Z"/><path class="cls-2" d="M1066.32,155.46c-5.76,0-10.44-1.98-14.04-5.94s-5.4-8.82-5.4-14.58c0-2.76.48-5.4,1.44-7.92.96-2.52,2.28-4.71,3.96-6.57,1.68-1.86,3.72-3.36,6.12-4.5,2.4-1.14,5.04-1.71,7.92-1.71s5.52.57,7.92,1.71c2.4,1.14,4.44,2.64,6.12,4.5,1.68,1.86,3,4.05,3.96,6.57.96,2.52,1.44,5.16,1.44,7.92,0,5.76-1.8,10.62-5.4,14.58s-8.28,5.94-14.04,5.94ZM1085.58,26.27v80.61h-38.15V26.27h38.15Z"/><path class="cls-2" d="M118.4,153.67h-37.43v-72.87h-.54l-25.19,72.87H16.37V26.27h37.43l-4.14,76.47h.9l23.21-76.47h34.01l-2.7,76.47h.54l22.31-76.47h36.71l-46.24,127.4Z"/><path class="cls-2" d="M207.65,134.95h-22.85l-6.66,18.71h-39.23l53.62-127.4h46.6l6.66,127.4h-38.15v-18.71ZM193.8,106.34h14.4v-41.92h-.72l-13.68,41.92Z"/><path class="cls-2" d="M340.81,58.3h-22.67l-16.55,95.37h-37.25l16.73-95.37h-22.67l5.58-32.03h82.41l-5.58,32.03Z"/><path class="cls-2" d="M411.52,66.4c-1.44-1.8-3.06-3.39-4.86-4.77-1.8-1.38-4.5-2.07-8.1-2.07s-6.81,1.29-9.63,3.87c-2.82,2.58-5.25,5.88-7.29,9.9-2.04,4.02-3.6,8.46-4.68,13.32s-1.62,9.57-1.62,14.12c0,5.88,1.08,10.62,3.24,14.22s5.7,5.4,10.62,5.4c2.88,0,5.34-.63,7.38-1.89,2.04-1.26,3.9-2.61,5.58-4.05l16.19,28.97c-3.96,3.84-8.94,7.11-14.94,9.81-6,2.7-12.96,4.05-20.87,4.05s-14.21-1.23-19.97-3.69c-5.76-2.46-10.59-5.91-14.48-10.35-3.9-4.44-6.87-9.78-8.91-16.01-2.04-6.24-3.06-13.19-3.06-20.87,0-11.03,1.53-21.62,4.59-31.76,3.06-10.14,7.38-19.04,12.96-26.72,5.58-7.68,12.26-13.79,20.06-18.35,7.8-4.56,16.37-6.84,25.73-6.84,5.16,0,9.69.42,13.59,1.26,3.9.84,7.32,1.98,10.26,3.42,2.94,1.44,5.46,3.06,7.56,4.86,2.1,1.8,3.99,3.66,5.67,5.58l-25.01,28.61Z"/><path class="cls-2" d="M519.66,153.67h-37.61l8.64-49.3h-18.89l-8.64,49.3h-37.43l22.13-127.4h37.25l-7.74,44.26h19.07l7.56-44.26h37.79l-22.13,127.4Z"/></svg>