<?xml version="1.0" encoding="UTF-8"?><svg id="Layer_1" xmlns="http://www.w3.org/2000/svg" viewBox="0 0 760.99 387.1"><defs><style>.cls-1{fill:none;stroke:#171cb7;stroke-miterlimit:10;stroke-width:8.54px;}.cls-2{fill:#171cb7;}</style></defs><line class="cls-1" x1="124.96" y1="289.39" x2="293.79" y2="289.39"/><path class="cls-2" d="M345.34,289.39c-24.25,9-54.35,24.36-73,40.62l14.69-40.62-14.69-40.61c18.65,16.26,48.75,31.62,73,40.61Z"/><path class="cls-2" d="M345.98,263.2c0-11.58,1.4-22.08,4.19-31.48,2.79-9.4,6.81-17.41,12.06-24.02,5.25-6.61,11.62-11.69,19.12-15.23,7.49-3.54,15.88-5.32,25.15-5.32s17.65,1.77,25.15,5.32c7.49,3.55,13.87,8.62,19.12,15.23,5.25,6.61,9.27,14.62,12.06,24.02,2.79,9.4,4.19,19.9,4.19,31.48s-1.4,22.12-4.19,31.59c-2.79,9.47-6.82,17.55-12.06,24.23-5.25,6.68-11.62,11.86-19.12,15.54-7.5,3.68-15.88,5.52-25.15,5.52s-17.65-1.84-25.15-5.52c-7.5-3.68-13.87-8.86-19.12-15.54-5.25-6.68-9.27-14.75-12.06-24.23-2.79-9.47-4.19-20-4.19-31.59ZM390.96,263.2c0,9.4,1.26,17.21,3.78,23.41,2.52,6.2,6.44,9.3,11.76,9.3s9.23-3.1,11.76-9.3c2.52-6.2,3.78-14,3.78-23.41s-1.26-17.14-3.78-23.2c-2.52-6.06-6.44-9.1-11.76-9.1s-9.23,3.04-11.76,9.1c-2.52,6.07-3.78,13.8-3.78,23.2Z"/><path class="cls-2" d="M532.64,340.07c-9.54,0-17.65-1.53-24.33-4.6-6.68-3.07-12.16-7.33-16.46-12.78-4.29-5.45-7.43-11.86-9.4-19.22-1.98-7.36-2.96-15.33-2.96-23.92v-88.32h44.77v84.43c0,6.95.58,12.23,1.74,15.84,1.16,3.61,3.65,5.42,7.46,5.42s6.34-1.8,7.56-5.42c1.23-3.61,1.84-8.89,1.84-15.84v-84.43h44.16v88.32c0,8.59-1.06,16.56-3.17,23.92-2.12,7.36-5.39,13.77-9.81,19.22-4.43,5.45-10.05,9.71-16.87,12.78-6.82,3.07-14.99,4.6-24.53,4.6Z"/><path class="cls-2" d="M663.89,335.99h-43.75v-107.13h-25.55v-37.62h94.86v37.62h-25.55v107.13Z"/><path class="cls-2" d="M725.22,338.03c-6.54,0-11.86-2.25-15.95-6.75s-6.13-10.02-6.13-16.56c0-3.13.54-6.13,1.64-9,1.09-2.86,2.59-5.35,4.5-7.46,1.91-2.11,4.22-3.81,6.95-5.11,2.73-1.29,5.72-1.94,9-1.94s6.27.65,9,1.94c2.72,1.3,5.04,3,6.95,5.11,1.91,2.12,3.41,4.6,4.5,7.46,1.09,2.86,1.63,5.86,1.63,9,0,6.54-2.04,12.06-6.13,16.56s-9.4,6.75-15.95,6.75ZM747.09,191.24v91.59h-43.34v-91.59h43.34Z"/><path class="cls-2" d="M134.52,174.59h-42.52v-82.8h-.61l-28.62,82.8H18.6V29.85h42.52l-4.7,86.89h1.02l26.37-86.89h38.64l-3.07,86.89h.61l25.35-86.89h41.71l-52.54,144.74Z"/><path class="cls-2" d="M235.93,153.33h-25.96l-7.56,21.26h-44.57L218.75,29.85h52.95l7.56,144.74h-43.34v-21.26ZM220.19,120.82h16.35v-47.63h-.82l-15.54,47.63Z"/><path class="cls-2" d="M387.21,66.24h-25.76l-18.81,108.35h-42.32l19.01-108.35h-25.76l6.34-36.39h93.63l-6.34,36.39Z"/><path class="cls-2" d="M467.56,75.44c-1.63-2.04-3.47-3.85-5.52-5.42-2.04-1.57-5.11-2.35-9.2-2.35s-7.74,1.47-10.94,4.4c-3.21,2.93-5.96,6.68-8.28,11.24-2.32,4.57-4.09,9.61-5.31,15.13-1.23,5.52-1.84,10.87-1.84,16.05,0,6.68,1.23,12.06,3.68,16.15s6.47,6.13,12.06,6.13c3.27,0,6.06-.72,8.38-2.15,2.32-1.43,4.43-2.96,6.34-4.6l18.4,32.91c-4.5,4.36-10.15,8.08-16.97,11.14-6.82,3.07-14.72,4.6-23.71,4.6s-16.15-1.4-22.69-4.19c-6.54-2.79-12.03-6.71-16.46-11.76-4.43-5.04-7.8-11.11-10.12-18.2-2.32-7.08-3.48-14.99-3.48-23.72,0-12.54,1.74-24.56,5.21-36.08,3.48-11.52,8.38-21.64,14.72-30.36,6.34-8.72,13.93-15.67,22.8-20.85,8.86-5.18,18.6-7.77,29.23-7.77,5.86,0,11.01.48,15.44,1.43,4.43.96,8.31,2.25,11.65,3.88,3.34,1.64,6.2,3.48,8.59,5.52,2.38,2.04,4.53,4.16,6.44,6.34l-28.42,32.51Z"/><path class="cls-2" d="M590.42,174.59h-42.73l9.81-56.02h-21.47l-9.81,56.02h-42.52l25.15-144.74h42.32l-8.79,50.29h21.67l8.59-50.29h42.93l-25.15,144.74Z"/></svg>